<svg width="514" height="744" viewBox="0 0 514 744" fill="none" xmlns="http://www.w3.org/2000/svg">
<g opacity="0.22">
<path fill-rule="evenodd" clip-rule="evenodd" d="M508.656 483.832C508.656 483.832 507.593 472.87 504.058 473.574C502.995 470.389 504.758 466.146 504.058 462.253C503.35 458.01 498.044 451.646 498.403 450.583C498.403 450.228 498.752 417.338 495.922 415.921C493.097 414.858 485.32 411.324 480.713 411.678L471.523 400.007C471.523 399.653 472.936 398.944 472.586 396.469C472.236 394.347 465.867 387.628 465.867 387.628C465.867 387.274 467.28 383.031 467.28 380.555C467.28 378.079 466.217 379.138 464.454 376.667C466.217 375.249 464.804 369.948 464.804 369.948C471.173 367.826 479.664 348.02 480.013 343.777C480.363 339.888 466.217 326.8 465.154 325.742C465.862 322.562 466.926 316.547 465.503 310.887C463.391 300.983 457.022 294.619 446.41 291.08C444.94 290.34 443.4 289.748 441.813 289.313C441.463 287.9 428.016 263.142 427.317 262.438C426.254 261.729 424.132 261.02 424.132 261.02C424.132 259.962 425.545 254.302 424.132 251.826C423.069 248.996 409.636 240.51 407.151 239.447C406.801 239.447 404.68 235.908 402.908 234.141C401.146 232.728 393.005 231.31 390.184 231.31C369.669 192.41 337.128 144.665 317.326 122.737C297.524 101.163 256.144 70.0407 245.891 55.8991C235.279 41.3985 225.375 23.0092 221.133 21.9461C216.89 20.883 218.302 51.3018 224.312 69.691C230.322 88.4347 252.605 113.897 260.387 121.679C268.164 129.81 279.13 144.311 283.373 153.86C273.47 149.967 256.853 126.276 255.44 125.917C254.018 125.563 254.018 153.86 256.494 163.05C252.61 158.098 231.74 139 208.753 116.723C186.121 94.0903 160.654 48.4669 156.411 37.5052C152.168 26.8931 140.143 -0.690778 136.604 0.0132291C133.425 0.721961 127.764 15.5723 127.055 30.7817C126.347 46.3407 124.934 71.4534 142.614 106.819C124.58 93.0272 72.5917 32.5535 72.9461 32.9031C72.9461 32.9031 55.9696 7.79511 54.2025 10.975C49.9595 19.1065 59.8629 52.3507 67.2904 70.3903C74.7179 88.0756 90.2769 111.057 71.179 166.23C57.7414 204.426 37.9347 210.79 29.8032 212.562C22.026 213.975 0.0931394 212.916 0.447506 215.742C0.447506 218.572 17.7784 224.587 25.5555 229.888C33.3374 234.84 57.0327 245.098 56.3239 296.027C55.6152 347.306 24.4924 361.807 19.5407 366.05C14.5891 369.943 -1.32433 381.614 0.0884135 384.085C1.86024 386.56 19.1864 383.381 27.3226 382.318C35.4589 381.254 62.6884 379.487 81.7863 408.489C91.6897 422.985 88.5051 432.538 85.3253 439.257C81.7863 445.626 65.1642 460.477 67.9991 463.307C70.8293 466.491 88.8642 456.938 95.583 455.17C102.656 453.403 105.486 450.573 117.511 454.107C98.0588 461.181 74.0092 492.658 73.6548 493.366L92.3984 490.182C92.3984 490.182 66.5817 498.672 53.4985 524.844C72.5964 519.183 80.3736 521.659 81.7911 521.659C47.8381 534.747 38.6434 566.574 38.6434 566.574C38.6434 566.574 67.9991 558.797 87.8011 563.744C87.8011 563.744 95.9374 575.06 99.1219 575.768C102.302 576.831 113.268 565.511 121.754 561.976C122.458 563.035 130.245 576.118 134.483 576.472C138.376 576.827 150.401 566.569 153.935 563.744C156.411 568.695 167.023 582.842 170.912 583.546C175.155 584.25 190.714 575.768 194.253 573.288C198.146 578.948 212.642 595.925 217.948 597.692C223.254 599.459 235.983 588.143 236.692 587.434C244.828 599.813 255.79 610.421 259.678 611.838C263.571 612.901 267.819 610.775 267.819 610.775C330.065 628.456 388.412 709.09 393.369 743.043C410.34 712.625 406.457 696.711 406.457 696.711C408.578 694.59 409.641 692.109 410.34 688.575C411.049 685.041 411.404 636.233 399.379 616.426L394.781 612.183C394.781 612.183 396.194 606.173 395.49 603.343C395.49 602.993 380.63 569.749 368.256 554.894V554.539L365.071 552.064C365.071 552.064 365.771 547.821 365.421 546.054C365.071 543.937 341.022 507.862 341.022 507.862L337.487 506.445C337.487 506.445 339.25 503.615 339.25 501.843C338.9 500.076 329.346 477.094 327.934 476.026C326.871 474.613 324.4 474.259 324.4 474.259C324.4 473.909 326.521 472.492 326.521 470.725C326.871 468.953 323.336 449.151 320.506 443.845C325.812 448.801 331.822 455.166 337.837 461.53C356.231 480.978 364.712 494.066 366.479 497.25C366.13 497.605 366.13 498.313 366.13 498.668C365.771 501.498 365.421 506.091 368.251 510.693C368.95 512.105 370.373 515.29 385.573 527.315C390.232 531.086 395.073 534.628 400.078 537.927C399.719 542.524 401.84 551.364 409.981 557.025C413.166 550.656 416.35 552.782 416.35 552.782C416.35 552.782 419.885 557.379 419.885 560.913C419.885 564.452 415.287 572.234 419.885 579.307C424.482 586.026 438.279 591.687 444.634 589.919C440.036 580.725 441.458 578.244 443.934 575.419C446.056 572.589 451.711 572.943 454.546 567.996C457.372 563.394 453.483 554.199 457.017 552.787C460.552 551.369 469.392 558.088 468.683 564.457C475.052 561.272 480.358 551.369 478.232 543.592C478.232 543.592 482.126 539.703 482.83 536.169C482.83 536.169 487.436 534.752 489.199 532.985C490.611 531.213 490.971 529.8 492.034 529.091C492.733 528.387 493.796 529.446 495.218 528.387C496.981 527.683 511.477 510.352 512.899 506.105C514.316 502.221 512.195 487.366 508.656 483.832V483.832Z" fill="black"/>
<path fill-rule="evenodd" clip-rule="evenodd" d="M226.084 420.173C226.084 420.173 220.778 431.135 220.778 433.616C221.133 436.446 225.021 447.762 227.851 448.471C230.327 449.175 243.415 440.693 244.828 438.922C246.241 437.504 245.891 433.616 245.891 433.616C245.891 433.616 241.998 434.679 238.813 433.616C235.988 432.198 231.036 421.591 226.084 420.173V420.173ZM132.366 517.785C132.366 517.785 127.415 525.207 126.002 530.872C124.939 536.179 123.88 542.189 124.235 546.077C124.939 549.616 133.075 565.175 135.905 564.825C138.735 564.117 152.882 553.864 154.649 551.383C156.77 548.912 154.294 535.824 157.833 527.688C157.833 527.688 150.406 518.139 146.872 510.007C146.867 510.003 140.498 515.663 132.366 517.785V517.785ZM220.074 473.579C220.074 473.579 226.439 488.788 231.39 493.026C231.39 493.026 229.977 516.367 224.671 522.382C219.72 528.751 208.758 536.883 203.806 535.115C198.855 533.344 190.014 520.256 189.306 517.785C188.951 514.95 193.903 493.381 197.792 484.186C197.792 484.186 211.584 480.652 220.074 473.579V473.579ZM245.532 442.805C245.532 442.805 233.157 453.068 227.143 455.539C227.143 455.539 224.312 465.797 224.312 470.748C224.312 475.7 232.094 489.492 234.924 489.492C237.755 489.138 252.959 477.822 252.959 477.822C252.959 477.822 252.61 462.962 254.731 457.66C254.731 457.66 249.075 453.772 245.532 442.805V442.805ZM253.673 482.419C253.673 482.419 255.085 493.381 258.62 504.701C262.163 516.022 267.469 522.736 267.11 527.688C261.804 536.179 250.488 546.077 245.537 545.723C240.59 545.368 228.21 529.096 228.21 525.916C227.856 522.736 233.157 515.663 233.512 510.711C233.866 505.76 234.575 494.444 234.575 494.444C234.575 494.444 245.891 490.196 253.673 482.419V482.419ZM224.667 529.809C224.667 529.809 234.216 544.664 241.294 550.32C241.294 550.32 241.998 565.175 239.167 571.54C236.337 577.55 222.196 587.807 218.302 586.395C214.414 584.977 200.267 566.593 198.85 563.762C197.787 560.927 202.389 551.383 203.447 540.062C203.452 540.062 211.584 540.417 224.667 529.809V529.809ZM245.532 551.024C245.532 551.024 244.833 566.942 240.939 577.195C240.939 577.195 254.731 600.182 260.741 600.536C266.406 600.89 279.844 587.094 283.728 580.734C283.028 548.907 269.941 531.931 269.941 531.931C269.941 531.931 253.673 551.024 245.532 551.024V551.024ZM194.253 485.599C194.607 484.895 194.961 484.181 194.961 483.832C194.961 483.832 187.18 474.637 186.121 468.622C184.704 468.622 183.291 469.685 184.704 474.278C186.83 480.293 192.486 484.186 194.253 485.599V485.599Z" fill="#27824D"/>
<path fill-rule="evenodd" clip-rule="evenodd" d="M253.673 482.419C253.673 482.419 255.085 493.381 258.62 504.701C262.163 516.022 267.469 522.736 267.11 527.688C261.804 536.179 250.488 546.077 245.537 545.723C240.59 545.368 228.21 529.096 228.21 525.916C227.856 522.736 233.157 515.663 233.512 510.711C233.866 505.76 234.575 494.444 234.575 494.444C234.575 494.444 245.891 490.196 253.673 482.419V482.419ZM153.231 490.55C153.231 490.55 158.892 497.623 157.829 517.071C157.829 517.071 150.755 507.522 150.051 504.697C149.692 501.866 153.231 490.55 153.231 490.55Z" fill="#27824D"/>
<path fill-rule="evenodd" clip-rule="evenodd" d="M266.756 432.198C266.756 432.198 256.144 452.005 257.207 472.161C260.042 514.246 286.563 544.31 286.912 571.889C286.912 594.176 281.965 607.255 281.965 607.255L287.621 610.085C287.621 610.085 298.583 576.846 287.971 549.257C277.368 522.736 262.863 502.575 261.8 468.627C261.1 449.175 271.348 433.616 271.348 433.616L266.756 432.198V432.198Z" fill="#49AA6A"/>
<path fill-rule="evenodd" clip-rule="evenodd" d="M310.258 442.097C311.671 440.684 313.443 439.266 313.083 437.858C312.384 436.087 293.631 432.198 273.475 435.383L273.125 436.087C277.368 435.737 293.277 434.674 310.258 442.097Z" fill="#B78727"/>
<path fill-rule="evenodd" clip-rule="evenodd" d="M284.791 464.379C296.112 465.797 309.549 470.748 315.559 473.22C316.622 472.156 317.331 470.748 317.681 468.622C318.04 464.379 313.797 448.82 312.384 447.403C307.777 445.281 297.879 440.684 287.975 439.267C278.786 437.854 273.829 438.203 271.708 438.203C269.586 443.155 265.348 452 264.639 460.84V465.438C267.469 464.379 274.183 462.962 284.791 464.379V464.379ZM397.252 697.084C395.49 694.254 393.369 694.254 379.222 690.72C385.941 700.269 389.475 706.279 395.49 718.304C395.49 718.304 399.724 702.036 397.252 697.439V697.084Z" fill="#ECC4BC"/>
<path fill-rule="evenodd" clip-rule="evenodd" d="M424.487 547.136C424.487 547.136 423.778 548.553 425.195 551.024C426.258 553.5 430.501 558.097 429.079 562.345C428.016 566.234 424.482 568.005 428.016 575.074C431.55 582.501 435.793 582.856 435.793 582.856C435.793 582.856 433.672 576.132 435.793 571.889C438.274 567.651 444.634 567.651 446.755 563.758C448.876 559.864 446.056 556.33 446.755 553.146C447.464 550.315 453.124 547.136 453.124 547.136C453.124 547.136 449.24 544.305 446.755 545.723C444.634 546.786 445.342 553.5 443.58 556.33C442.158 558.806 437.565 560.573 437.211 564.821C437.211 564.821 435.089 562.699 436.148 560.578C437.206 558.456 441.095 555.626 439.682 551.029C438.269 546.077 435.789 543.606 433.313 543.606C431.205 543.247 424.487 547.136 424.487 547.136V547.136ZM415.646 259.967C415.646 259.967 409.641 257.491 404.685 254.306C400.087 251.122 394.073 249 394.073 249L390.189 240.514C390.189 240.514 395.136 239.451 396.907 240.869C398.67 242.636 400.092 246.175 401.855 247.233C403.622 248.296 417.768 250.418 415.646 259.967V259.967ZM386.291 246.884C386.291 246.884 377.8 242.641 373.557 244.053C369.324 245.466 366.489 250.063 362.955 249.709C359.42 249.355 357.299 247.942 354.114 247.588C350.93 247.233 348.808 250.063 348.808 250.063C348.808 250.063 341.381 241.218 335.371 237.33C335.371 237.33 335.012 233.791 332.536 230.965C330.065 227.781 325.467 223.892 325.108 220.353C325.108 216.465 330.065 208.329 330.065 208.329C330.065 208.329 323.695 211.159 323.346 214.693C323.346 214.693 316.268 207.265 316.977 202.314C317.326 197.362 320.861 190.289 320.861 190.289C320.861 190.289 314.855 192.061 314.491 197.362C314.491 197.362 310.608 190.289 308.836 185.337C307.073 180.031 311.671 173.312 311.671 173.312C311.671 173.312 308.136 173.312 306.714 177.201C306.714 177.201 298.233 171.541 297.524 164.822C296.816 157.749 301.418 154.569 301.418 154.569C301.418 154.569 296.461 154.923 295.753 158.457C295.753 158.457 290.446 152.447 290.097 148.2C290.097 143.957 291.869 138.651 291.869 138.651C291.869 138.651 288.334 139.005 287.975 142.894C287.975 142.894 279.494 136.175 278.786 132.636C278.426 129.097 280.557 123.441 280.557 123.441C280.557 123.441 277.014 123.087 276.664 127.33C276.664 128.743 269.586 120.965 268.523 117.781C267.469 114.242 268.882 111.416 268.882 111.416C268.882 111.416 265.348 111.062 264.989 113.892C264.989 113.892 257.212 105.756 257.561 103.635C257.561 101.159 259.333 96.9158 259.333 96.9158C259.333 96.9158 256.149 97.6198 255.449 100.804C255.449 100.804 251.556 99.0326 249.784 96.5615C248.371 94.0856 251.206 88.0756 251.206 88.0756C251.206 88.0756 247.313 93.7313 246.25 91.2554C245.187 88.7796 244.478 85.2454 244.837 83.4783C244.837 81.7064 243.774 86.6581 241.653 84.891C239.531 83.4783 238.473 81.3521 237.41 79.2306C236.347 76.7548 238.473 71.4534 238.473 71.4534C238.473 71.4534 236.351 75.6964 234.934 73.9245C233.871 72.1574 232.104 67.2058 231.395 65.793C230.332 64.3803 232.104 60.487 232.104 60.487C232.104 60.487 229.982 62.9628 228.919 61.191C227.856 59.0695 223.613 39.2628 224.676 36.787C225.739 33.9568 234.934 56.2393 244.478 66.1379C254.027 76.0413 259.338 77.4588 258.624 80.993C258.624 80.993 267.474 86.6534 271.358 91.2507L269.237 92.6634C269.237 92.6634 272.421 92.3091 275.955 94.7849C279.14 97.2607 281.611 102.212 281.611 102.212C281.611 102.212 289.398 105.397 292.932 112.47L290.451 116.004C290.451 116.004 295.058 114.592 299.651 117.776C304.598 120.961 310.263 128.738 310.263 128.738L306.02 129.447C306.02 129.447 310.967 129.447 313.797 131.918C316.981 134.748 322.287 143.588 322.287 143.588C322.287 143.588 319.807 143.588 316.981 145.001C316.981 145.001 322.637 145.71 326.53 148.894C330.065 152.433 331.827 159.147 331.827 159.147L327.23 160.919C327.23 160.919 333.948 160.919 337.842 165.162C341.376 169.051 343.148 176.483 343.148 176.483C343.148 176.483 339.604 176.128 338.191 177.187C338.191 177.187 343.148 176.483 347.032 178.959C350.925 181.435 357.294 195.226 357.294 195.226C357.294 195.226 351.988 195.581 350.925 198.057C350.925 198.057 356.231 196.639 360.828 200.532C365.426 204.775 369.319 215.737 369.319 215.737C369.319 215.737 365.076 216.446 362.591 218.567C362.591 218.567 368.256 217.15 373.203 221.747C378.159 226.014 384.528 238.039 386.291 246.884V246.884ZM198.5 430.781C198.5 430.781 177.631 466.146 164.902 522.028C164.902 522.028 182.233 518.848 185.767 511.071C189.655 503.289 190.718 492.677 194.961 483.836C194.961 483.836 186.476 473.933 186.121 467.918C185.767 461.913 191.073 445.64 202.035 434.679C202.035 434.674 199.559 433.257 198.5 430.781V430.781Z" fill="#27824D"/>
<path fill-rule="evenodd" clip-rule="evenodd" d="M205.928 436.087C205.928 436.087 188.951 460.491 190.014 466.146C190.718 471.452 195.32 479.589 198.151 479.938C200.981 479.938 216.894 472.516 219.72 468.622C222.196 464.734 224.671 453.063 224.671 453.063C224.671 453.063 219.016 445.281 216.894 432.548C216.89 432.552 210.525 436.087 205.928 436.087V436.087ZM117.866 499.041C117.866 499.041 120.696 510.711 124.584 516.018C124.584 516.018 122.108 526.271 121.045 533.698C119.628 541.475 119.982 549.611 118.924 552.442C117.861 554.917 111.496 556.685 107.962 558.452C104.069 560.573 102.302 564.821 100.535 565.17C98.7675 565.525 93.1119 554.563 93.4615 550.675C93.8159 546.427 109.729 512.124 117.866 499.041V499.041ZM185.767 517.43C185.767 517.43 176.218 525.207 166.314 526.979C166.314 526.979 159.241 545.728 159.241 551.383C159.241 556.689 169.499 572.952 173.033 572.952C176.218 572.952 190.01 567.297 194.253 560.578C198.496 554.209 200.263 539.004 200.263 539.004C200.263 539.004 188.951 526.625 185.767 517.43V517.43ZM285.15 242.636C285.15 242.636 285.5 238.039 283.028 232.733C280.194 227.426 272.766 222.12 266.047 215.756C259.328 209.746 257.916 201.255 255.794 199.134C253.673 197.012 247.653 200.551 225.73 184.279C204.161 168.011 187.534 146.088 181.169 134.063C175.159 122.392 170.208 100.464 168.436 100.464C166.669 100.11 165.606 116.378 167.023 131.582C167.023 131.582 161.363 127.339 159.95 124.155C158.537 120.621 161.013 116.019 161.013 116.019L157.474 117.082C157.474 117.082 151.814 113.547 151.814 109.304C151.459 105.062 154.29 100.464 154.29 100.464L150.751 101.168C150.751 101.168 145.799 91.9736 145.445 87.0219C145.09 82.0702 147.566 80.3031 147.566 80.3031C147.566 80.3031 146.508 82.779 144.386 79.5944C142.614 76.0555 141.556 69.6911 141.556 66.8608C141.91 64.0306 143.328 61.5548 143.328 61.5548C143.328 61.5548 140.852 63.3266 139.789 60.4964C138.376 57.6662 138.376 47.7629 138.376 47.7629L136.255 46.3501C136.255 46.3501 135.192 15.9314 137.318 14.5186C139.09 13.4602 141.206 27.2522 144.037 31.8495C146.867 36.8012 150.047 40.6897 150.401 42.8112C147.571 43.1656 147.925 43.5199 147.925 43.5199C147.925 43.5199 150.047 43.5199 151.11 44.583C152.877 46.7045 154.29 50.5931 155.353 54.132C156.057 55.1951 152.877 55.9038 152.877 55.9038C152.877 55.9038 156.057 55.5495 156.765 56.9669C159.241 60.5059 164.902 68.9918 164.193 70.7589C162.776 70.7589 161.363 71.4676 161.363 71.4676C161.363 71.4676 164.902 71.822 165.251 72.5307C167.373 75.0065 173.388 83.4924 173.388 86.677C171.616 85.9683 170.557 87.0314 170.557 87.0314C170.557 87.0314 174.092 87.7401 175.155 88.8032C177.985 90.575 192.131 108.61 192.486 111.081C190.714 110.727 188.597 112.498 187.534 112.853C187.534 112.853 192.136 112.144 193.544 113.207C199.204 116.746 202.389 122.047 202.739 123.819C201.326 124.174 199.554 125.232 199.554 125.232C199.554 125.232 202.739 124.878 203.797 125.586C209.103 128.417 215.118 136.198 215.118 137.611C213.7 137.966 212.288 139.024 212.288 139.024C212.288 139.024 215.826 138.67 216.885 139.378C220.424 141.145 225.371 146.097 227.497 148.927C225.021 149.282 222.9 149.986 222.9 149.986C222.9 149.986 227.497 149.631 228.56 150.34C235.279 153.879 241.294 161.656 241.294 161.656C241.294 161.656 238.463 162.719 237.051 164.132C237.051 164.132 242.357 162.011 243.769 163.428C249.775 169.084 256.144 174.744 256.494 176.516C254.381 177.22 252.26 178.283 252.26 178.283C252.26 178.283 257.916 176.87 258.979 177.929C261.804 179.7 268.882 185.356 270.645 188.541C268.882 188.541 267.819 189.953 267.819 189.953C269.581 189.953 272.062 189.604 273.824 191.017C279.49 194.91 285.145 201.983 285.849 203.041C283.728 203.396 281.252 205.872 281.252 205.872C281.252 205.872 286.558 204.459 288.679 206.226C290.801 207.643 299.641 216.129 299.641 218.251C297.869 218.605 294.685 220.372 294.685 220.372C294.685 220.372 299.641 219.668 301.054 220.372C302.467 221.076 310.603 230.63 310.603 237.349C310.608 237.335 293.99 237.335 285.15 242.636V242.636Z" fill="#27824D"/>
<path fill-rule="evenodd" clip-rule="evenodd" d="M503 495.502C502.641 494.439 501.587 492.317 499.466 494.085C496.985 495.502 494.509 498.328 494.509 498.328C494.509 498.328 499.107 487.72 499.466 484.89C499.816 482.055 496.631 478.166 494.859 478.166C493.097 478.166 489.562 485.948 489.562 485.948C489.562 485.948 489.562 483.113 491.325 479.225C493.097 475.691 496.281 471.448 495.568 465.787C494.505 459.777 491.325 465.083 489.562 452.345C488.14 439.616 493.097 426.883 489.203 422.989C485.32 419.105 478.95 421.577 478.95 421.577C483.548 434.305 481.422 440.32 481.422 440.32C475.416 406.367 453.488 397.527 453.488 397.527C458.085 396.818 463.741 399.648 463.741 399.648C461.969 392.575 452.779 386.56 452.779 386.56C452.779 386.56 458.435 387.264 458.435 386.206C458.785 382.318 453.129 378.779 453.129 378.779C457.726 372.769 455.61 369.938 455.61 369.938C452.425 374.89 447.469 374.536 447.469 374.536L448.177 379.842C446.755 377.011 443.934 375.24 443.934 375.24C445.347 378.07 444.997 385.143 444.997 385.143C441.813 374.89 434.036 364.987 428.73 361.802C423.074 358.972 411.049 360.744 409.986 364.987C408.923 368.875 411.748 370.997 414.229 376.303C417.054 381.963 417.054 387.264 417.054 387.264C417.054 387.264 407.151 370.642 402.559 368.166C398.316 365.691 389.825 364.278 384.165 369.584C378.509 374.89 382.043 387.264 382.043 387.264C382.043 387.264 376.038 371.351 366.834 367.812C357.289 364.273 352.338 369.934 341.726 369.584C331.123 369.23 327.579 363.924 327.579 363.924C333.594 366.754 343.498 367.108 343.498 366.045C343.847 364.987 340.313 363.215 337.492 361.802C335.012 360.389 332.536 354.729 332.536 354.729C344.561 365.336 363.304 362.86 363.304 362.86L361.183 360.739C351.634 361.093 345.274 362.86 333.599 354.02C321.924 345.534 320.511 336.335 320.511 336.335C319.448 342.704 320.161 352.603 320.161 352.603C314.147 325.014 293.99 329.966 293.99 329.966C295.653 328.371 297.563 327.056 299.646 326.073C293.631 321.83 281.252 323.601 278.781 323.951V323.597C284.437 318.999 292.927 320.412 292.577 318.999C292.577 317.228 284.437 314.402 284.437 314.402C284.437 314.402 299.296 314.048 299.646 312.281C299.996 310.514 293.99 309.45 293.99 309.45C293.99 309.45 301.418 307.329 304.952 305.911C308.486 304.848 317.326 301.314 316.268 300.251C315.559 298.838 313.083 297.775 313.083 297.775C313.083 297.775 315.918 297.421 318.04 298.838C320.161 300.256 324.409 302.732 326.88 303.436C329.002 304.14 334.308 304.848 334.308 303.436V299.193C337.492 306.97 347.745 317.228 347.745 317.228C346.682 315.106 346.682 312.63 346.682 312.63C346.682 312.63 349.508 314.756 350.575 317.582C351.629 320.412 350.216 320.053 353.751 331.374C357.294 342.336 368.61 349.763 368.61 349.763C367.902 344.457 368.96 340.214 368.96 340.214C368.96 340.214 375.329 355.773 383.82 360.021C391.951 364.618 401.85 362.497 405.748 356.128C409.641 349.763 409.991 343.399 409.991 343.399C409.991 343.399 411.403 348.705 411.054 351.176C411.054 353.297 409.641 354.36 411.054 355.773C412.467 357.186 418.122 357.545 421.666 353.652C425.55 350.113 424.137 341.627 425.2 344.103C426.613 346.578 426.963 354.006 428.385 356.482C430.147 358.958 432.269 359.312 439.346 358.603C446.065 357.895 448.536 354.36 451.721 351.885C455.255 349.409 458.09 348.346 457.726 350.472C457.377 352.943 453.129 354.715 454.551 356.482C455.964 357.895 460.556 354.715 460.207 357.186C459.848 359.662 457.372 363.555 457.372 363.555C464.091 360.37 470.105 354.006 470.105 347.642C470.105 341.272 460.556 333.141 454.546 329.607C448.532 325.713 446.405 321.471 446.405 321.471C452.42 322.534 455.605 325.359 455.605 325.359C455.605 325.359 458.076 318.286 456.658 312.98C455.605 307.324 452.425 302.373 443.58 299.542C437.875 297.445 432.318 294.964 426.948 292.115C429.07 291.76 433.318 291.76 433.318 291.76C433.318 291.76 429.434 278.323 419.88 269.124C410.331 260.283 403.612 262.05 397.243 258.516C390.524 255.332 387.34 252.506 380.271 250.739C372.844 249.322 371.072 252.152 371.072 252.152L375.669 257.103C375.669 257.103 367.188 254.977 364.003 254.273C360.819 253.569 355.513 256.04 355.513 256.04C355.513 256.04 365.062 269.128 367.887 271.958C370.722 274.789 373.193 273.017 374.606 275.847C376.378 278.677 378.499 296.358 378.499 296.358C378.499 296.358 370.009 277.969 367.183 275.138C364.348 271.958 359.756 270.895 357.984 270.187C356.222 269.483 348.794 259.934 347.381 258.516C345.61 256.749 344.546 258.871 342.425 257.453C340.304 256.036 328.628 243.661 324.031 242.598C319.788 241.894 311.657 247.195 307.763 248.258C304.229 249.322 304.229 245.428 301.044 246.137C297.86 246.846 288.67 248.258 287.257 250.03C285.835 251.797 284.777 255.686 285.485 257.458C286.549 259.225 289.379 257.458 287.957 262.764C286.544 268.065 280.538 270.541 280.538 270.541C280.538 270.541 281.592 266.648 281.951 263.468C282.301 260.283 278.058 254.977 277.354 252.147C276.995 249.317 277.704 238.355 276.995 235.525C276.645 232.695 268.155 229.156 264.97 225.622C261.436 222.437 256.13 210.412 254.717 208.645C252.945 206.524 237.386 203.693 210.157 178.94C182.573 153.832 172.315 126.952 172.315 126.952C172.315 126.952 181.51 159.487 185.753 164.439C190.35 169.391 191.763 164.085 210.511 185.659C229.255 207.228 226.07 208.995 228.9 214.301C231.73 219.961 239.153 220.665 239.153 220.665L231.022 222.078C231.022 222.078 231.022 223.491 242.343 233.04C254.008 242.943 261.086 239.758 266.747 242.943C272.053 246.128 273.815 252.492 274.174 259.57C274.873 264.876 272.752 268.056 271.694 269.473C270.63 267.352 267.096 260.279 263.212 256.744C258.256 252.851 252.251 256.036 245.881 254.269C239.867 252.501 226.075 239.414 223.245 232.695C220.065 225.976 214.759 201.218 206.977 190.256C199.195 179.294 181.51 168.328 181.51 168.328C181.51 168.328 184.34 183.183 188.937 187.071C193.889 190.96 201.316 190.61 208.39 203.339C215.463 216.068 215.817 243.302 220.06 245.778C224.657 248.254 232.085 247.899 235.269 256.744C235.269 256.744 229.255 259.215 226.075 257.803C226.075 257.803 229.609 263.109 240.221 266.997C250.474 271.24 260.028 270.182 266.033 281.144C268.868 286.45 265.683 294.936 265.683 294.936C265.683 294.936 266.392 292.814 264.62 292.464C262.499 292.464 258.251 296.003 258.251 296.003C258.251 296.003 261.785 292.464 261.086 287.867C260.023 283.27 257.193 275.488 257.193 275.488C257.193 275.488 252.246 285.741 247.644 290.343C243.051 294.586 239.867 293.882 238.454 294.586C236.682 294.94 233.502 299.183 232.444 302.368C231.735 305.552 227.138 311.562 227.138 311.562C227.138 311.562 227.847 308.378 227.138 306.256C227.138 306.256 227.138 309.795 224.308 312.266C221.832 314.742 215.467 318.636 214.759 326.058C213.696 333.486 217.235 338.792 216.88 346.923C216.176 355.06 214.05 365.667 214.05 365.667C214.05 365.667 217.23 362.128 218.293 355.764C218.293 355.764 220.414 360.361 219.002 364.609C217.23 369.206 215.817 369.915 215.463 375.925C214.754 381.935 221.473 399.974 223.24 404.572C225.012 409.523 238.449 426.141 243.755 426.854C248.702 427.558 267.455 421.898 275.582 420.844C283.714 419.781 288.67 421.548 288.67 421.548C288.67 421.548 283.364 423.67 280.893 423.67C278.058 423.67 275.237 425.791 275.237 425.791C275.237 425.791 283.718 426.495 298.224 426.495C298.224 426.495 306.705 425.791 302.108 423.665C302.108 423.665 308.122 422.602 312.37 425.078C316.604 427.199 324.744 434.627 344.197 455.137C363.999 476.002 374.606 491.916 375.315 495.455C375.665 498.994 373.902 502.528 376.024 506.416C378.145 510.305 404.316 530.82 406.792 531.17C409.263 531.524 411.035 529.049 412.797 529.403C412.797 529.403 408.913 534.709 408.913 538.952C408.913 543.195 410.326 546.734 410.326 546.734C410.326 546.734 411.739 543.549 414.924 542.491C418.108 541.074 420.23 542.137 421.652 539.306C423.064 536.476 422.001 532.588 419.521 529.757C419.521 529.757 424.477 531.525 424.128 536.127C424.128 540.724 421.293 543.904 421.293 543.904C421.293 543.904 425.536 543.549 427.307 541.428C429.429 539.661 429.07 536.476 429.07 536.476C429.07 536.476 431.191 537.539 430.492 539.661C430.492 539.661 434.725 536.476 438.973 537.539C438.973 537.539 435.789 541.073 434.376 540.724C434.376 540.724 438.269 543.554 441.095 542.845C444.279 542.137 449.236 538.952 453.119 539.661C456.654 540.724 454.542 542.491 454.542 542.491C454.542 542.491 458.775 544.258 460.547 546.025C460.547 546.025 467.625 541.073 469.038 539.306C470.8 537.539 469.387 535.418 469.387 535.418C469.387 535.418 466.916 534.714 464.79 532.947C462.668 531.529 455.95 528.345 450.294 527.641C444.279 527.286 437.91 529.053 433.662 529.053C429.779 529.053 424.822 523.752 424.822 523.752C424.822 523.752 430.487 526.582 435.434 525.869C440.391 525.519 446.046 522.335 452.056 523.752C457.712 525.165 469.387 534.005 474.344 532.947C479.291 532.238 482.475 526.932 482.825 522.689C483.184 518.8 482.475 518.446 479.999 518.446C477.878 518.8 472.222 520.213 470.8 522.689C470.8 522.689 459.134 513.844 449.585 509.96C440.036 506.067 418.817 503.237 413.511 511.373C408.205 519.509 406.792 524.815 406.792 524.815C406.792 524.815 397.243 525.874 388.398 507.484C384.155 498.29 388.398 489.09 388.398 489.09L381.679 480.954C381.679 480.954 379.208 483.789 379.558 486.26C379.558 486.26 370.718 481.663 366.12 471.764C361.514 461.861 364.348 451.249 360.105 443.472C355.863 436.044 338.177 424.019 325.453 413.058C313.069 401.737 317.667 400.324 311.657 396.79C305.642 392.901 294.326 386.537 281.592 394.668C281.592 394.668 277.708 397.139 279.83 400.678C279.83 400.678 273.111 398.907 272.402 394.668C272.053 390.775 278.771 384.056 289.733 382.998L286.199 387.95C304.583 383.707 317.317 392.193 317.317 392.193C315.195 386.886 307.768 384.765 307.768 384.765C320.152 384.056 318.03 397.853 336.774 414.116C355.168 430.029 361.523 431.447 366.13 443.472C370.727 455.846 368.251 458.681 371.436 467.167C374.611 476.007 377.795 477.779 377.795 477.779C377.795 474.594 382.402 472.473 382.402 472.473C385.228 477.425 390.179 482.022 390.179 482.022C393.714 478.488 403.267 477.784 403.267 477.784C396.189 480.255 397.252 483.794 397.252 483.794C397.252 483.794 394.068 485.561 392.655 490.158C390.883 495.11 389.82 499.003 394.427 509.611C398.661 520.218 406.093 521.635 406.093 521.635C406.093 521.635 405.03 514.912 408.928 509.256C413.171 503.6 421.302 501.12 422.365 499.353C423.428 497.586 421.666 495.819 421.666 495.819C421.666 495.819 424.841 497.231 425.55 499.353C426.259 501.12 425.2 501.824 424.841 502.183C425.55 501.829 432.269 498.649 444.643 502.183C458.44 506.072 471.877 517.392 471.877 517.392C483.902 517.392 491.33 507.489 491.33 507.489C491.33 507.489 492.393 510.319 490.98 513.499C489.567 516.679 487.087 518.096 487.087 518.096C488.509 520.218 487.446 524.466 487.446 524.466C487.446 524.466 495.577 514.208 497.349 511.378C499.471 508.547 500.883 510.315 503.005 506.426C505.122 502.221 503.704 496.919 503 495.502V495.502Z" fill="#27824D"/>
<path fill-rule="evenodd" clip-rule="evenodd" d="M174.451 376.322C192.845 364.297 206.637 357.224 206.637 357.224C197.796 358.287 191.078 367.481 188.247 364.297C185.771 361.117 201.685 351.918 201.685 351.918C196.029 354.748 190.014 357.928 184.004 361.112C185.417 361.467 186.835 362.525 186.126 363.942C185.412 366.064 178.339 372.783 174.451 376.322V376.322Z" fill="#346337"/>
<path fill-rule="evenodd" clip-rule="evenodd" d="M161.717 508.231C161.717 508.231 168.79 489.487 144.037 461.195C119.278 433.256 91.6944 447.048 91.6944 447.048C91.6944 447.048 110.084 434.674 89.2186 403.197C68.7079 372.074 33.6965 369.603 23.4388 373.846C23.4388 373.846 64.8193 354.039 65.5233 296.041C66.232 238.043 29.0992 221.421 29.0992 221.421C29.0992 221.421 60.2173 224.251 79.6696 169.079C99.1219 113.911 83.9125 78.8998 74.7179 65.1032C65.8777 51.6656 64.1058 35.3979 64.1058 35.3979C64.1058 35.3979 67.2904 46.3596 96.6414 76.7736C125.997 107.188 167.373 140.432 171.261 149.981C171.261 149.981 172.325 159.53 175.859 167.666C175.859 167.666 104.773 101.178 81.432 71.822C81.432 71.822 104.064 105.775 93.1024 140.432C104.419 131.237 94.8696 114.261 104.419 112.494C114.322 111.076 167.018 152.457 177.626 198.08C206.273 206.92 215.118 258.2 199.2 261.03C183.286 263.86 137.308 245.116 137.308 245.116C137.308 245.116 154.994 253.607 166.31 258.204C177.271 262.806 197.078 264.574 222.191 282.963C222.191 282.963 188.592 264.928 183.995 267.045C179.752 269.166 210.52 278.011 217.948 288.973C217.948 288.973 179.752 268.462 121.045 249.01C62.3387 229.208 45.3575 228.853 45.3575 228.853C45.3575 228.853 55.9696 238.402 60.2125 246.539C64.1011 254.67 66.9313 236.281 113.613 250.078C160.295 263.869 189.651 282.259 194.248 288.623C199.2 294.988 193.894 307.721 188.592 310.906C183.641 314.086 153.935 315.857 132.361 326.819C132.361 326.819 174.446 314.086 202.384 315.149C202.03 316.916 179.043 317.624 181.874 321.513C184.349 325.047 196.374 320.096 203.447 324.343C203.447 324.343 177.276 323.28 161.363 326.11C145.449 328.941 89.2139 344.145 37.9347 369.258C37.9347 369.258 51.3723 367.491 63.3971 373.86C63.3971 373.86 64.8098 367.845 72.9461 362.185C81.432 356.175 136.25 330.712 169.494 330.712C202.739 330.358 198.845 348.747 185.408 357.233C171.97 365.719 156.761 377.744 147.212 386.589C147.212 386.589 177.626 362.539 201.675 351.932C201.675 351.932 185.762 361.126 188.238 364.311C191.068 367.496 197.787 358.301 206.627 357.238C206.627 357.238 140.847 390.482 105.836 436.814C105.836 436.814 113.263 434.338 117.861 436.106C117.861 436.106 119.628 423.018 147.921 399.327C175.859 375.986 199.908 364.67 203.797 374.573C207.686 384.826 197.787 394.735 192.481 404.988C187.529 415.6 181.16 433.634 181.16 433.634C181.16 433.634 191.063 416.658 196.719 406.051C202.379 395.793 208.04 389.428 210.161 384.477C210.161 384.477 206.268 394.38 206.977 399.332C207.681 403.929 195.656 419.847 184.694 442.125C173.742 464.03 170.917 495.856 161.717 508.231V508.231Z" fill="#27824D"/>
<path fill-rule="evenodd" clip-rule="evenodd" d="M308.836 544.305C321.569 545.014 345.969 549.257 355.522 552.442C355.872 551.378 356.585 548.907 356.231 546.786C355.522 543.956 337.487 516.367 333.245 512.833H332.885C326.88 509.648 313.792 503.638 299.646 501.866C284.436 500.099 274.183 500.808 270.64 501.162C272.761 508.59 275.946 516.372 280.553 524.862C283.931 531.435 286.997 538.163 289.743 545.024C292.218 544.66 297.874 543.601 308.836 544.305V544.305Z" fill="#ECC4BC"/>
<path fill-rule="evenodd" clip-rule="evenodd" d="M294.34 592.759C297.175 591.696 303.18 586.036 312.02 586.749C338.42 589.371 363.908 597.826 386.64 611.503C386.999 610.799 387.703 608.672 386.64 605.493C385.577 601.958 375.679 577.909 361.178 560.224C354.809 557.044 331.473 549.262 313.079 547.844C299.991 546.786 293.985 547.14 290.801 547.495C296.806 561.995 295.398 566.238 295.044 580.385C295.049 583.21 294.34 590.283 294.34 592.759V592.759Z" fill="#ECC4BC"/>
<path fill-rule="evenodd" clip-rule="evenodd" d="M387.354 686.127C391.951 687.54 394.073 688.598 396.903 690.725C398.665 686.836 403.272 673.394 399.728 647.223C397.257 627.421 391.247 619.284 387.004 616.105C361.183 601.245 337.847 597.356 314.855 594.531C304.243 593.468 297.175 594.885 293.99 595.948C292.577 608.677 290.447 611.153 290.447 611.153C290.447 611.153 338.191 633.79 377.101 687.545C379.922 686.127 384.528 685.414 387.354 686.127V686.127ZM292.218 497.983C306.714 499.046 321.924 503.988 328.642 506.114C329.351 505.051 330.414 503.284 330.065 501.871C329.706 499.4 323.696 484.899 320.161 481.006C319.802 480.656 319.453 480.302 319.098 479.943C313.792 477.117 299.996 470.04 285.5 468.273C273.475 467.209 267.469 467.569 264.635 468.273C264.635 476.763 265.698 485.603 269.581 497.983C273.824 496.919 278.781 497.269 292.218 497.983V497.983Z" fill="#ECC4BC"/>
<path fill-rule="evenodd" clip-rule="evenodd" d="M177.631 198.076C167.023 152.452 114.327 111.072 104.423 112.489C95.2286 113.902 101.947 128.757 93.8112 137.951C90.6266 159.88 81.0823 181.808 81.0823 181.808C81.0823 181.808 90.9857 162.71 105.486 156.345C119.987 149.627 144.386 162.006 154.29 171.904C164.547 181.808 158.183 189.939 163.484 200.551C168.431 211.159 176.218 214.343 174.446 233.087C173.033 248.646 158.533 251.481 154.29 251.831C168.79 257.137 189.655 262.797 199.204 261.025C215.122 258.2 206.278 206.921 177.631 198.076ZM131.303 263.151C175.509 283.308 176.218 300.988 175.863 306.294C175.509 309.833 171.975 313.367 169.853 315.489C179.048 313.717 186.476 312.659 188.597 310.891C193.903 307.707 199.204 294.973 194.253 288.609C189.655 282.245 160.3 263.855 113.618 250.063C71.5334 237.684 65.1689 251.476 61.2756 248.292C63.7515 251.831 68.7032 261.379 70.1159 278.351C70.1206 278.356 87.0971 242.99 131.303 263.151V263.151ZM93.4615 398.599C91.6897 396.478 68.3535 363.234 129.531 345.903C186.121 329.635 187.888 348.024 183.995 358.282C184.349 357.928 185.058 357.578 185.408 357.219C198.845 348.733 202.734 330.344 169.494 330.698C136.25 330.698 81.432 356.161 72.9461 362.171C66.936 366.414 64.8099 370.661 63.7515 372.783C70.1206 375.259 81.0871 381.977 93.4615 398.599V398.599ZM157.474 400.367C186.121 376.671 190.01 381.269 191.427 386.22C192.49 391.172 183.291 413.455 181.878 430.072L182.941 428.305C185.417 422.295 189.306 412.037 192.49 404.964C197.796 394.711 207.695 384.803 203.806 374.55C199.918 364.646 175.868 375.963 147.93 399.304C123.172 420.169 118.579 432.902 118.225 435.378C122.822 436.441 130.249 438.917 138.735 446.34C138.731 446.344 128.827 423.712 157.474 400.367V400.367ZM335.012 394.357C335.012 394.357 344.211 396.124 356.94 408.857C370.736 422.295 372.508 431.494 372.508 431.494C373.208 423.358 371.086 412.75 363.659 404.26C356.241 395.42 350.934 393.298 346.687 391.172C346.687 391.172 352.692 395.415 350.93 396.832L335.012 394.357ZM286.563 374.904C286.563 374.904 272.766 373.491 261.455 377.026C250.139 380.914 247.308 387.279 247.658 390.818C247.658 394.002 267.469 407.085 267.469 407.085L258.979 391.167L268.882 379.497L286.563 374.904V374.904ZM408.928 432.198C408.928 432.198 406.806 427.601 395.84 421.236C402.209 428.31 399.724 432.198 399.724 435.383C400.083 438.567 402.908 447.408 404.68 449.883C406.093 452.354 405.03 440.334 405.03 440.334L408.573 433.965L408.928 432.198V432.198ZM425.899 458.015C414.938 448.466 415.996 436.8 415.996 436.8L418.477 434.324L420.589 426.547L423.424 425.13L427.317 426.547L429.788 429.018L438.978 429.727L443.585 433.965L441.463 436.087C441.463 436.087 444.997 440.689 446.76 443.864C447.823 445.985 451.003 448.82 452.066 454.122C452.775 457.306 452.425 464.379 453.488 466.855C456.314 472.865 475.416 479.23 477.887 484.181C480.358 488.783 477.887 494.085 477.887 494.085C477.887 494.085 468.338 486.307 459.848 484.895C453.842 484.186 450.658 479.589 452.779 477.467C453.488 477.118 440.046 479.938 438.633 472.516C445.002 472.87 441.818 462.967 434.39 455.539C426.608 448.112 428.021 459.787 425.899 458.015V458.015ZM404.685 515.309C403.272 508.236 403.976 500.099 407.156 496.211C410.34 492.677 416.705 493.381 418.831 486.307C418.831 486.307 422.365 493.735 419.181 497.269C416.355 501.158 406.093 504.697 404.685 515.309V515.309ZM133.779 462.962C133.779 462.962 122.817 479.938 122.458 484.181C122.104 488.07 121.4 504.697 129.177 513.537C132.007 517.071 132.716 513.183 138.022 510.003C143.328 506.818 146.862 505.76 147.217 503.634C147.217 501.158 150.047 489.842 151.459 486.657C152.523 483.477 143.328 469.331 133.779 462.962V462.962ZM217.953 409.566L208.404 414.163L200.976 426.542C200.976 426.542 202.743 433.616 204.865 432.912C207.341 432.203 217.244 427.606 218.657 426.188C220.074 425.125 224.667 416.993 224.667 416.993L217.953 409.566V409.566ZM132.366 517.785C132.366 517.785 127.415 525.207 126.002 530.873C124.939 536.179 123.88 542.189 124.235 546.077C124.939 549.262 131.308 561.995 134.842 564.471L135.546 559.165C135.546 559.165 127.06 553.155 125.997 543.252C125.288 535.829 130.594 522.387 133.07 517.435C132.721 517.43 132.366 517.43 132.366 517.785V517.785ZM244.833 438.922C246.245 437.504 245.896 433.616 245.896 433.616C245.896 433.616 242.002 434.679 238.818 433.616C235.988 432.198 231.041 421.591 226.089 420.173C226.089 420.173 220.783 431.135 220.783 433.616C221.137 435.737 223.259 442.456 225.38 445.99C231.041 443.869 235.992 442.456 241.298 441.752C243.061 440.33 244.469 439.626 244.833 438.922V438.922Z" fill="#346337"/>
<path fill-rule="evenodd" clip-rule="evenodd" d="M144.391 535.115C145.454 532.281 148.634 526.27 152.527 519.906C150.406 517.071 148.284 513.183 146.867 510.003C146.867 510.003 140.498 515.658 132.366 517.78C132.366 517.78 129.536 522.018 127.769 526.266C130.953 533.339 133.779 544.66 133.075 562.695C134.133 564.107 135.196 564.816 135.905 564.816C135.905 564.816 140.148 558.806 140.502 553.854C140.852 548.907 141.561 542.538 144.391 535.115V535.115ZM245.532 442.805C245.532 442.805 233.157 453.068 227.143 455.539C227.143 455.539 224.312 465.797 224.312 470.748C224.312 475.7 232.094 489.492 234.924 489.492H235.279C235.628 487.371 235.628 484.186 234.57 483.123C233.153 481.001 225.725 474.987 225.725 470.035C225.725 465.088 229.264 457.66 229.264 457.66C233.861 455.185 244.119 446.34 244.119 446.34C244.119 446.34 244.828 451.291 247.653 455.18C249.425 457.656 252.26 459.782 254.022 460.486C254.022 459.423 254.382 458.365 254.731 457.656C254.731 457.661 249.075 453.772 245.532 442.805V442.805ZM446.764 545.723C444.643 546.786 445.352 553.5 443.589 556.33C442.167 558.806 437.575 560.573 437.22 564.821C437.22 564.821 435.099 562.699 436.157 560.578C437.216 558.456 441.104 555.626 439.691 551.029C438.279 546.077 435.798 543.606 433.322 543.606C431.201 543.252 424.482 547.14 424.482 547.14C424.482 547.14 424.132 547.844 424.482 549.262C426.254 549.616 428.725 549.616 430.851 548.558C430.851 548.558 437.22 553.509 435.448 556.335C434.036 559.519 432.264 564.112 432.977 569.777C432.977 569.777 440.046 563.054 443.23 561.641C446.415 560.223 445.002 551.383 448.536 548.912C449.599 548.208 450.308 548.208 451.007 548.558C452.071 547.495 453.129 547.14 453.129 547.14C453.129 547.14 449.245 544.305 446.764 545.723V545.723ZM399.728 273.759C399.728 273.759 424.487 290.026 421.666 321.149C421.666 321.149 415.651 302.76 403.626 286.842C391.946 270.928 399.728 273.759 399.728 273.759ZM322.632 234.504C322.632 234.504 316.977 205.857 300.704 185.347C284.082 164.836 273.12 162.006 263.571 143.966C263.571 143.966 267.465 166.249 272.062 175.443C272.062 175.443 278.067 182.871 280.553 186.405C283.024 189.59 281.965 191.357 284.087 193.478C286.208 195.6 308.136 219.295 311.671 224.955C315.205 230.616 319.453 229.553 322.632 234.504V234.504ZM161.013 104.712C158.892 99.4058 165.61 90.5656 165.61 90.5656C165.61 90.5656 163.139 89.1481 161.013 90.2112C159.241 91.2743 158.537 93.7501 156.416 93.0414C153.94 92.3374 151.464 88.0945 151.819 83.4924C152.173 78.8951 155.707 75.0065 155.707 75.0065C155.707 75.0065 153.586 73.5891 151.819 75.0065C150.406 76.0649 149.343 78.1864 147.93 76.4193C146.163 74.2978 144.391 71.4676 145.1 66.5159C145.454 61.5642 149.697 58.0253 149.697 58.0253C149.697 58.0253 146.867 56.2582 144.391 58.0253C141.915 59.4428 140.148 56.2582 140.852 52.0153C141.556 48.1267 144.391 44.2381 144.391 44.2381C144.391 44.2381 142.27 45.3012 140.498 44.2381C139.439 43.5341 139.794 27.616 140.148 20.5428C139.085 16.6542 138.027 14.1784 137.318 14.5328C135.196 15.9455 133.075 36.461 135.905 46.0099C136.259 47.7818 138.381 47.7818 138.381 47.7818C138.381 47.7818 137.318 48.8449 137.318 50.612C136.963 53.4422 138.381 58.7435 139.09 60.865C140.153 63.6952 141.92 61.9281 141.92 61.9281C141.92 61.9281 140.502 62.9912 140.502 65.8166C140.153 68.2925 142.978 77.1327 143.687 81.0213C144.041 82.7931 145.459 82.4388 146.163 82.0844C145.808 83.1475 144.745 83.5019 145.1 85.6233C145.454 90.9294 149.343 102.245 150.406 102.954C151.819 101.541 154.294 100.478 154.294 100.478C154.294 100.478 151.464 104.721 151.115 107.197C150.406 111.086 156.421 121.343 157.479 118.868C158.188 116.392 161.018 116.037 161.018 116.037C161.018 116.037 158.542 120.639 159.955 124.174C161.368 127.358 167.028 131.601 167.028 131.601C166.394 123.956 166.276 116.276 166.674 108.615C165.256 108.6 162.78 108.246 161.013 104.712V104.712ZM225.73 184.284C233.507 189.939 239.167 193.478 243.42 195.245C243.061 192.415 243.42 187.468 246.245 183.22C246.245 183.22 239.172 186.405 238.818 188.527C238.114 190.648 233.866 185.342 231.39 183.924C228.914 182.157 225.73 179.686 226.793 175.439C227.502 170.841 228.914 168.72 228.914 168.72C228.914 168.72 225.375 169.783 223.608 171.904C222.196 174.026 220.778 175.084 220.778 175.084C220.778 175.084 215.826 173.317 214.059 169.778C211.938 165.89 211.584 161.292 217.239 154.923C217.239 154.923 212.642 155.982 210.52 158.812C208.399 161.996 208.399 162.7 208.399 162.7C208.399 162.7 202.389 160.579 200.617 155.273C198.85 150.321 202.739 144.661 202.739 144.661C202.739 144.661 198.496 144.306 196.729 148.554C196.729 148.554 189.301 144.661 188.951 139.005C188.597 132.995 194.257 127.689 194.257 127.689C194.257 127.689 187.539 128.393 185.417 133.699C185.417 133.699 178.698 133.345 178.698 125.208C179.053 117.072 182.941 116.723 182.941 116.723C182.941 116.723 178.698 116.723 175.514 119.553C177.281 124.859 179.053 130.165 181.169 134.053C187.534 146.088 204.161 168.016 225.73 184.284V184.284ZM272.412 221.416C272.062 220.004 271.703 218.232 272.062 216.465C272.412 212.222 274.533 209.037 274.533 209.037C274.533 209.037 268.164 211.867 267.106 216.819C268.877 218.237 270.64 220.004 272.412 221.416V221.416ZM285.15 242.636C286.563 241.577 288.684 240.869 290.447 240.16C289.034 239.456 287.621 238.039 286.563 235.563C284.791 229.194 289.747 222.12 289.747 222.12C289.747 222.12 281.606 226.014 280.557 229.194C280.907 229.548 280.907 229.898 281.257 230.257C281.257 230.611 281.606 230.965 281.606 230.965L281.965 231.32C281.965 231.674 282.315 231.674 282.315 232.028C282.665 232.383 282.665 232.383 283.024 232.733C285.5 238.039 285.15 242.636 285.15 242.636ZM355.877 247.942C352.692 245.466 346.687 240.16 346.687 235.563C346.337 229.902 356.59 221.062 356.59 221.062C356.59 221.062 352.697 218.941 348.1 222.125C343.857 225.31 342.793 226.722 342.793 226.722C342.793 226.722 340.322 219.649 337.847 216.469C335.375 212.931 334.662 210.1 335.725 207.984C336.788 205.862 345.628 201.619 345.628 201.619C345.628 201.619 340.322 199.847 337.497 201.265C334.312 203.032 334.662 205.508 331.832 203.032C328.647 200.561 325.113 195.609 325.826 193.129C326.535 190.298 332.196 182.876 332.196 182.876C332.196 182.876 329.361 182.167 327.239 183.23C324.768 184.293 323.705 187.473 321.234 186.414C319.112 185.351 317.69 182.172 316.991 178.278C316.632 174.035 319.462 166.253 319.462 166.253C319.462 166.253 316.277 168.025 314.156 169.792C312.394 171.559 307.437 165.549 305.316 162.365C303.544 158.826 308.85 148.927 308.85 148.927C308.85 148.927 302.481 153.879 300.369 151.403C298.247 148.927 294 142.209 299.306 133.014C299.306 133.014 295.762 132.305 293.291 134.427C290.82 136.548 288.694 135.49 287.635 132.655C286.572 129.825 286.572 124.878 286.572 121.693C286.922 118.509 285.863 117.091 285.863 117.091C285.863 117.091 277.382 123.46 275.61 118.863C273.839 114.266 277.382 104.362 277.382 104.362C277.382 104.362 274.547 104.362 272.775 105.775C270.654 107.547 268.533 110.372 266.77 106.838C264.649 102.949 266.421 95.1676 266.421 95.1676C266.421 95.1676 263.236 94.8132 259.343 97.2891C258.993 97.9931 257.571 101.532 257.571 103.653C257.221 105.775 264.998 113.911 264.998 113.911C265.357 111.081 268.892 111.435 268.892 111.435C268.892 111.435 267.479 114.266 268.533 117.8C269.596 120.984 276.674 128.762 276.674 127.349C277.023 123.106 280.567 123.46 280.567 123.46C280.567 123.46 278.436 129.116 278.795 132.655C279.504 136.194 287.985 142.913 287.985 142.913C288.344 139.019 291.878 138.67 291.878 138.67C291.878 138.67 290.106 143.976 290.106 148.219C290.456 152.107 295.762 158.476 295.762 158.476C296.471 154.937 301.427 154.588 301.427 154.588C301.427 154.588 296.82 157.768 297.534 164.841C298.243 171.559 306.724 177.22 306.724 177.22C308.146 173.331 311.68 173.331 311.68 173.331C311.68 173.331 307.083 180.05 308.845 185.356C310.617 190.308 314.501 197.381 314.501 197.381C314.86 192.075 320.87 190.308 320.87 190.308C320.87 190.308 317.336 197.381 316.986 202.333C316.277 207.284 323.355 214.712 323.355 214.712C323.705 211.173 330.074 208.347 330.074 208.347C330.074 208.347 325.118 216.484 325.118 220.372C325.477 223.911 330.074 227.8 332.545 230.984C335.016 233.814 335.38 237.349 335.38 237.349C341.385 241.237 348.818 250.082 348.818 250.082C348.818 250.082 350.939 247.252 354.124 247.606C354.814 247.588 355.173 247.942 355.877 247.942V247.942ZM246.595 82.075C246.595 80.3078 248.017 76.7689 248.017 76.7689C248.017 76.7689 245.182 79.2448 243.774 79.2448C242.361 79.2448 238.468 76.0602 239.172 73.9387C239.881 71.8172 241.298 69.6958 241.298 69.6958C241.298 69.6958 238.822 70.7589 237.405 68.6374C235.633 66.8656 234.225 62.977 234.225 61.5595C234.58 60.1468 234.58 58.3797 234.58 58.3797C234.58 58.3797 232.808 60.1468 231.395 57.6709C230.686 56.2582 229.273 47.7676 228.565 41.4032C226.443 37.8642 225.026 35.7428 224.671 36.8059C223.608 39.2817 227.856 59.0837 228.914 61.2099C229.978 62.9817 232.099 60.5059 232.099 60.5059C232.099 60.5059 230.327 64.3944 231.39 65.8119C232.099 67.2247 233.866 72.1763 234.929 73.9434C236.342 75.7153 238.468 71.4723 238.468 71.4723C238.468 71.4723 236.347 76.7784 237.405 79.2495C238.468 81.3709 239.526 83.4924 241.648 84.9099C243.774 86.677 244.833 81.7253 244.833 83.4971C244.473 85.2642 245.182 88.8032 246.245 91.2743C247.308 93.7454 251.202 88.0944 251.202 88.0944C249.775 88.0897 246.595 84.1964 246.595 82.075V82.075Z" fill="#346337"/>
<path fill-rule="evenodd" clip-rule="evenodd" d="M256.494 98.6971C255.44 97.2844 253.668 94.0998 253.318 91.9783C253.318 89.1481 254.382 85.2595 254.382 85.2595C254.382 85.2595 252.26 88.0897 251.197 88.0897C251.197 88.0897 248.362 94.0998 249.775 96.5756C251.547 99.0467 255.44 100.819 255.44 100.819C255.445 99.7602 255.794 99.0515 256.494 98.6971V98.6971ZM282.315 269.516C283.728 271.283 283.728 275.171 283.728 275.171C283.728 275.171 286.912 273.05 288.684 268.807C290.447 264.21 289.393 262.088 291.869 258.554C294.34 255.015 301.059 252.185 301.059 252.185C296.112 252.185 289.034 251.122 286.563 250.772C285.5 252.894 285.15 256.073 285.5 257.491C286.563 259.258 289.393 257.491 287.971 262.797C286.912 265.982 284.436 268.453 282.315 269.516V269.516ZM239.522 261.734C239.522 261.734 247.653 257.491 257.916 264.21C268.169 270.928 266.406 274.467 266.406 274.467C269.581 271.637 269.941 267.749 269.941 265.982C268.169 263.151 265.698 258.908 263.222 256.787C258.265 252.894 252.26 256.078 245.891 254.311C239.876 252.544 226.084 239.456 223.254 232.737C220.074 226.018 214.768 201.26 206.986 190.298C199.204 179.337 181.519 168.37 181.519 168.37C181.519 168.37 184.349 183.225 188.947 187.114C193.898 191.002 201.326 190.653 208.399 203.382C215.472 216.11 215.826 243.345 220.069 245.82C222.9 247.592 227.497 247.942 231.031 250.418C231.735 250.772 232.798 251.122 233.502 251.481C239.522 254.306 239.522 261.734 239.522 261.734ZM257.557 272.696V273.05V272.696ZM482.839 520.615C482.839 518.493 481.776 518.493 480.013 518.493C477.892 518.848 472.236 520.26 470.814 522.736C470.814 522.736 459.148 513.891 449.599 510.007C440.05 506.114 418.831 503.284 413.525 511.42C411.608 514.457 409.953 517.651 408.578 520.969C407.505 523.095 406.806 524.862 406.806 524.862C406.806 524.862 397.257 525.921 388.412 507.532C384.169 498.337 388.412 489.138 388.412 489.138L381.693 481.001C381.693 481.001 379.222 483.836 379.572 486.307C379.572 486.307 370.732 481.71 366.134 471.812C361.528 461.908 364.363 451.296 360.12 443.519C355.877 436.091 338.191 424.067 325.467 413.105C313.083 401.784 317.681 400.371 311.671 396.837C307.073 394.007 306.015 393.657 306.015 393.657C314.855 396.837 315.918 407.449 321.574 413.818C331.123 423.722 346.332 431.144 352.692 439.281C359.42 447.771 358.707 457.675 358.707 457.675C337.842 434.334 301.767 417.357 295.403 414.877C289.398 412.76 284.441 412.406 274.188 414.527C263.926 416.998 252.964 419.833 246.245 419.129C239.526 418.775 221.841 396.138 222.904 385.53C223.259 380.579 227.856 374.21 227.856 374.21C227.856 374.21 232.453 369.967 234.575 365.724C236.696 361.126 239.172 359.359 245.532 357.592C249.196 356.482 252.495 354.406 255.081 351.582C255.081 351.582 249.075 351.937 243.415 350.165C237.75 348.398 228.91 335.669 229.973 322.935C231.036 310.556 246.59 315.508 246.241 313.032C246.241 310.91 240.585 306.667 241.643 304.192C242.706 301.361 248.716 302.779 254.022 299.24C257.207 297.118 259.678 292.167 261.1 288.278V287.924C260.037 283.327 257.207 275.545 257.207 275.545C257.207 275.545 252.26 285.798 247.658 290.4C243.065 294.643 239.881 293.939 238.468 294.643C236.696 294.997 233.516 299.24 232.458 302.425C231.749 305.609 227.152 311.619 227.152 311.619C227.152 311.619 227.861 308.435 227.152 306.313C227.152 306.313 227.152 309.852 224.322 312.323C221.846 314.799 215.482 318.692 214.773 326.115C213.71 333.543 217.249 338.849 216.894 346.98C216.19 355.116 214.064 365.724 214.064 365.724C214.064 365.724 217.244 362.185 218.307 355.82C218.307 355.82 220.429 360.418 219.016 364.665C217.244 369.263 215.831 369.971 215.477 375.981C214.768 381.992 221.487 400.031 223.254 404.628C225.026 409.58 238.463 426.198 243.769 426.911C248.716 427.615 267.469 421.955 275.596 420.901C283.728 419.838 288.684 421.605 288.684 421.605C288.684 421.605 283.378 423.726 280.907 423.726C278.072 423.726 275.251 425.848 275.251 425.848C275.251 425.848 293.281 431.858 307.432 431.858C307.432 431.858 304.961 428.673 300.364 426.552C300.364 426.552 306.369 425.848 310.617 427.969C315.214 430.086 324.763 434.688 344.216 455.199C364.018 476.064 374.625 491.977 375.334 495.516C375.683 499.055 373.921 502.589 376.042 506.478C378.164 510.367 404.335 530.882 406.811 531.232C408.224 531.232 409.646 530.528 410.695 529.819C412.816 526.984 413.879 522.746 414.238 519.916C414.588 516.377 422.37 509.303 434.395 508.595C446.07 507.891 465.163 521.683 468.348 523.804C471.183 525.921 472.241 525.217 477.547 522.387C479.664 521.319 481.426 520.615 482.839 520.615V520.615ZM186.83 471.452C186.476 470.035 186.126 468.977 186.126 467.913C185.772 461.908 191.078 445.636 202.039 434.674C202.039 434.674 199.563 433.256 198.5 430.781C198.5 430.781 184.708 454.481 172.684 493.381C176.572 485.599 181.878 476.404 186.83 471.452ZM153.231 490.55C153.231 490.55 149.692 501.866 150.051 504.697C150.755 506.464 153.586 511.066 155.707 514.246C156.416 512.833 157.125 511.775 157.829 510.357C157.829 496.211 153.231 490.55 153.231 490.55Z" fill="#346337"/>
<path fill-rule="evenodd" clip-rule="evenodd" d="M399.024 685.064C389.825 677.637 376.038 679.758 370.732 679.054L377.101 687.54C380.985 687.54 383.82 687.186 386.645 687.54C391.252 688.244 394.073 688.603 396.908 690.725C397.607 689.662 398.316 687.894 399.024 685.064ZM294.69 584.268V584.623C294.34 587.453 294.34 590.278 294.34 592.759C297.175 591.696 302.471 590.638 311.671 591.342C325.817 592.046 354.11 594.176 386.64 611.503C387 610.799 387.704 608.672 386.64 605.493V604.789C376.737 599.482 349.508 590.288 330.764 586.395C312.379 582.856 299.646 583.564 294.69 584.268V584.268ZM286.563 538.295C287.975 540.771 289.034 542.897 289.747 545.019C292.218 544.664 297.879 543.601 308.841 544.31C321.574 545.019 345.973 549.262 355.527 552.446C355.877 551.383 356.59 548.912 356.236 546.791C355.877 546.436 355.877 546.436 355.877 546.082C347.036 542.902 325.467 539.717 312.025 537.596C299.646 535.819 290.806 537.232 286.563 538.295V538.295ZM268.169 492.317C268.518 494.085 268.877 496.206 269.581 497.978C273.824 496.915 278.781 497.269 292.218 497.978C306.714 499.041 321.924 503.983 328.643 506.109C329.351 505.046 330.065 503.638 330.065 501.866C322.288 499.041 303.185 492.677 290.447 491.613C280.553 490.55 272.412 491.613 268.169 492.317ZM317.681 468.627C318.04 464.384 313.797 448.825 312.384 447.407C307.777 445.286 297.879 440.689 287.975 439.271C278.786 437.859 273.829 438.208 271.708 438.208C270.295 441.038 268.523 445.636 266.761 450.233C269.232 450.942 272.067 455.185 271.708 458.01C271.358 459.782 270.295 461.903 269.586 464.379C273.48 463.675 278.426 463.675 284.796 464.379C296.116 465.797 309.554 470.748 315.564 473.22C316.618 472.161 317.326 470.748 317.681 468.627V468.627Z" fill="#B78727"/>
<path fill-rule="evenodd" clip-rule="evenodd" d="M317.326 469.685C311.671 466.855 300.355 461.908 287.621 460.136C273.824 458.015 267.465 458.724 264.984 459.432C264.984 459.787 264.635 460.136 264.635 460.85V465.447C267.469 464.384 274.184 462.971 284.791 464.384C296.112 465.801 309.549 470.753 315.559 473.224C316.268 472.516 316.977 471.452 317.326 469.685ZM387 616.105C381.693 612.92 376.387 610.444 371.44 608.323C391.242 625.299 397.252 643.688 400.787 673.394C401.254 664.656 400.898 655.894 399.724 647.223C397.253 627.416 391.247 619.28 387 616.105V616.105ZM361.183 560.219C356.585 557.748 344.211 553.146 329.002 550.315C356.935 569.064 356.935 584.268 356.585 588.511C356.236 591.696 354.464 594.521 353.401 595.939C365.003 599.926 376.146 605.142 386.64 611.498C386.999 610.794 387.703 608.668 386.64 605.488C385.582 601.954 375.679 577.909 361.183 560.219V560.219ZM355.522 552.442C355.872 551.378 356.585 548.907 356.231 546.786C355.522 543.956 337.487 516.367 333.245 512.833H332.885C326.88 509.648 313.792 503.638 299.646 501.866H297.874C320.161 512.479 323.696 528.392 322.982 535.824C322.632 538.654 322.632 540.776 321.919 542.189C334.308 545.368 348.804 549.966 355.522 552.442V552.442Z" fill="#B78727"/>
<path fill-rule="evenodd" clip-rule="evenodd" d="M320.161 481.001C319.802 480.652 319.453 480.297 319.098 479.938C313.792 477.113 299.996 470.035 285.5 468.268C278.781 467.564 274.183 467.564 270.64 467.564C284.786 475.7 291.864 485.958 292.927 492.672C292.927 494.439 292.927 496.56 292.218 497.978C306.714 499.041 321.924 503.983 328.642 506.109C329.351 505.046 330.414 503.279 330.065 501.866C329.701 499.391 323.696 484.895 320.161 481.001V481.001Z" fill="#B78727"/>
<path fill-rule="evenodd" clip-rule="evenodd" d="M236.342 259.258C236.342 258.195 235.633 257.137 234.929 256.073C234.929 256.428 235.284 256.428 235.284 256.782C235.284 256.782 229.269 259.253 226.089 257.841C226.089 257.841 227.856 260.316 232.099 263.147C233.866 262.443 235.988 261.025 236.342 259.258V259.258ZM267.469 441.038C269.581 436.441 271.353 433.616 271.353 433.616L266.756 432.198C266.756 432.198 264.984 435.737 262.863 440.689C264.285 441.038 266.047 441.038 267.469 441.038ZM129.536 460.136C129.536 460.136 120.696 473.224 116.807 483.123C116.807 483.123 105.491 479.938 93.4662 483.832C93.4615 483.832 106.904 463.675 129.536 460.136ZM115.035 487.016C115.035 487.016 115.39 491.963 116.094 494.439C116.094 494.439 109.021 502.575 103.01 515.658C103.01 515.658 89.2186 511.061 72.2421 513.183C72.2468 513.183 84.9756 495.502 115.035 487.016ZM96.6461 526.27C96.6461 526.27 86.7427 545.019 84.9756 555.981C84.9756 555.981 67.2951 551.379 50.673 557.393C50.6683 557.393 55.2656 537.946 96.6461 526.27ZM425.899 345.553C426.608 348.738 427.322 354.393 428.38 356.515C430.142 358.991 432.264 359.345 439.342 358.636C446.06 357.928 448.532 354.393 451.716 351.918C455.25 349.442 458.085 348.379 457.721 350.505C457.372 352.976 453.124 354.748 454.546 356.515C455.959 357.928 460.552 354.748 460.202 357.219C459.843 359.695 457.367 363.588 457.367 363.588C464.086 360.404 470.101 354.039 470.101 347.675C470.101 346.257 469.742 345.199 469.038 343.781C469.038 351.209 462.668 354.393 462.668 354.393C464.44 349.442 458.775 342.014 458.775 342.014C458.426 344.49 457.013 345.194 457.013 345.194C456.654 340.951 452.056 337.417 452.056 337.417C452.056 337.417 452.765 343.781 451.357 347.32C450.294 350.859 447.813 353.689 436.497 353.33C431.206 352.976 427.671 349.442 425.899 345.553V345.553ZM279.494 318.673C277.373 320.44 275.251 323.625 275.251 323.625L280.557 322.562C285.854 319.023 292.932 320.44 292.582 319.023C292.582 317.251 284.441 314.426 284.441 314.426C284.441 314.426 299.301 314.071 299.651 312.304C300 310.537 293.995 309.474 293.995 309.474C293.995 309.474 301.422 307.353 304.957 305.935C308.491 304.872 317.331 301.338 316.273 300.275C315.564 298.862 313.088 297.799 313.088 297.799C313.088 297.799 315.923 297.444 318.045 298.862C320.166 300.279 324.414 302.755 326.885 303.459C329.006 304.163 334.312 304.872 334.312 303.459V299.216C337.497 306.993 347.75 317.251 347.75 317.251C346.687 315.13 346.687 312.654 346.687 312.654C346.687 312.654 349.512 314.78 350.58 317.606C351.634 320.436 350.221 320.077 353.755 331.397C357.299 342.359 368.615 349.787 368.615 349.787C367.906 344.481 368.965 340.238 368.965 340.238C368.965 340.238 375.334 355.797 383.824 360.044C391.956 364.642 401.855 362.52 405.753 356.151C409.646 349.787 409.995 343.422 409.995 343.422C409.995 343.422 411.408 348.728 411.059 351.199C411.059 353.321 409.646 354.384 411.059 355.797C412.471 357.21 418.127 357.569 421.671 353.675C424.846 350.491 424.496 343.418 424.846 343.772C423.783 340.592 423.433 337.762 423.433 337.762C423.433 337.762 423.783 348.02 418.127 349.787C412.471 351.559 411.408 343.777 409.287 338.116C407.165 332.461 400.796 326.091 400.796 326.091C400.796 326.091 404.34 337.412 401.859 341.655C399.034 345.898 386.65 346.957 375.688 337.412C364.726 327.863 366.848 320.436 366.848 320.436L369.683 322.203C369.683 322.203 371.804 317.251 369.333 316.193C360.843 311.595 347.759 299.571 347.405 297.095C347.405 294.265 350.23 290.376 350.23 290.376C328.657 293.915 315.219 287.192 309.563 286.837C304.257 286.837 298.951 289.667 291.169 296.74C281.62 305.935 279.853 308.765 269.596 309.469C259.692 309.824 256.158 313.358 256.158 313.358C256.158 313.358 256.867 313.004 264.299 313.712C272.062 314.43 281.257 316.906 279.494 318.673V318.673ZM366.838 367.831C363.654 366.418 361.183 366.418 358.707 366.773C364.013 368.54 366.134 369.603 368.96 372.428C372.853 376.317 377.101 383.39 382.048 391.526C386.645 399.663 397.257 409.561 397.257 409.561C397.257 409.561 385.941 383.036 387.004 375.608C387.704 370.657 391.951 366.414 400.791 367.122C395.495 365.35 388.767 365.001 384.169 369.598C378.514 374.904 382.048 387.279 382.048 387.279C382.048 387.279 376.038 371.37 366.838 367.831V367.831Z" fill="#346337"/>
<path fill-rule="evenodd" clip-rule="evenodd" d="M333.599 354.039C321.924 345.553 320.511 336.354 320.511 336.354C319.802 341.306 319.802 347.675 320.161 350.855C323.346 358.282 327.23 362.525 329.351 364.646C335.366 366.768 343.497 367.122 343.497 366.059C343.847 365.001 340.313 363.229 337.492 361.816C335.012 360.404 332.536 354.743 332.536 354.743C344.561 365.35 363.304 362.875 363.304 362.875L361.183 360.753C351.279 361.112 345.269 362.879 333.599 354.039V354.039ZM430.501 363.234C429.845 362.852 429.248 362.376 428.73 361.821C423.074 358.991 411.049 360.763 409.986 365.006C408.923 368.894 411.748 371.016 414.229 376.322C415.393 378.918 416.224 381.652 416.7 384.458C419.526 387.288 423.419 389.055 423.419 389.055C417.763 378.797 412.807 369.248 418.821 364.297C422.016 361.467 426.958 362.171 430.501 363.234V363.234ZM449.595 378.089C449.944 376.676 449.595 375.618 448.886 374.555H447.473L448.182 379.861C446.76 377.03 443.939 375.259 443.939 375.259C444.638 377.03 445.002 379.501 445.002 381.628L449.949 389.759C448.886 384.453 449.595 381.269 449.595 378.089ZM492.738 504.342C494.16 502.575 493.097 498.687 493.097 498.687C488.499 505.405 483.897 504.342 483.897 504.342C482.135 511.415 477.538 512.833 477.538 512.833C481.072 508.231 480.009 502.221 480.009 502.221C480.009 502.221 474.353 504.342 471.518 504.342C468.334 503.988 460.906 499.041 453.124 494.439C445.347 489.842 442.871 492.317 438.274 489.842C433.317 487.72 416.7 480.647 416.7 480.647C423.069 485.953 423.419 489.842 423.769 491.963C423.769 493.381 423.419 495.502 422.356 496.206C424.477 497.269 425.54 499.391 425.54 499.391C425.54 499.391 434.381 495.502 450.648 502.221C463.382 507.881 471.164 514.6 473.984 517.43C484.946 516.367 491.315 507.527 491.315 507.527C491.315 507.527 492.379 510.357 490.966 513.537C489.553 516.717 487.072 518.134 487.072 518.134C488.495 520.256 487.432 524.503 487.432 524.503C487.432 524.503 495.563 514.246 497.335 511.415L498.748 510.003C500.16 505.76 499.456 502.575 499.456 502.575C496.985 505.405 492.738 504.342 492.738 504.342V504.342ZM371.081 252.185L372.853 254.306C374.616 254.661 380.281 255.719 381.693 257.845C381.693 257.845 378.509 252.185 373.552 250.772C371.795 251.481 371.081 252.185 371.081 252.185ZM446.415 321.504C450.658 322.567 455.614 325.392 455.614 325.392C457.377 317.615 450.658 312.659 450.658 312.659C450.658 312.659 449.949 315.489 448.536 316.902C446.764 319.023 442.881 317.256 442.881 317.256C444.643 318.319 446.06 319.732 446.415 321.504V321.504ZM355.522 256.073C355.522 256.073 365.071 269.161 367.897 271.992C370.732 274.822 373.203 273.05 374.616 275.88C376.038 278.002 377.45 289.672 378.159 294.624C380.63 297.808 384.878 299.93 384.878 299.93C384.878 299.93 380.281 287.551 378.509 285.075C376.737 282.604 378.509 275.526 376.038 271.637C373.557 268.098 372.853 270.928 370.732 269.161C368.61 267.04 364.013 260.321 362.241 257.845C361.532 256.787 361.532 255.369 361.891 254.306C358.707 254.661 355.522 256.073 355.522 256.073ZM221.487 447.403C221.132 447.048 221.132 446.699 220.778 446.34V445.985C220.424 445.636 220.424 445.281 220.424 444.927L220.069 444.573C219.006 441.388 217.594 437.145 216.885 432.548C216.885 432.548 210.52 436.082 205.923 436.082C205.923 436.082 197.787 448.107 192.835 456.947C191.068 460.84 189.651 464.375 190.005 466.142C190.005 467.205 190.359 468.617 191.068 469.681C192.835 474.632 196.02 479.584 198.141 479.934C198.141 479.934 194.602 473.215 193.898 466.496C197.365 462.726 201.285 459.4 205.569 456.593L208.753 454.471C214.414 453.767 220.424 453.767 223.963 455.175C224.317 453.762 224.667 453.058 224.667 453.058C224.667 453.058 223.254 451.296 221.487 447.403V447.403ZM200.267 538.999C200.267 538.999 188.951 526.625 185.767 517.43C185.767 517.43 176.218 525.207 166.314 526.979C166.314 526.979 159.241 545.728 159.241 551.383C159.241 556.689 169.499 572.952 173.033 572.952H174.092V569.418C174.092 569.418 161.712 555.626 161.712 549.97C161.712 544.664 168.431 529.455 168.431 529.455C173.383 528.392 184.699 520.26 184.699 520.26C184.699 520.26 185.053 524.503 188.592 529.455C190.359 532.64 196.724 537.232 200.263 539.713L200.267 538.999V538.999ZM241.294 550.32C234.22 544.664 224.667 529.809 224.667 529.809C211.579 540.417 203.447 540.062 203.447 540.062C202.384 551.383 197.787 560.927 198.85 563.762C200.263 566.593 214.409 584.977 218.302 586.395H218.657C218.657 584.627 217.953 582.156 217.594 580.739C216.181 578.617 203.098 563.408 202.389 560.932C201.68 558.461 203.452 556.335 204.161 551.742C205.219 546.791 206.632 543.606 206.632 543.606C213.351 541.13 223.963 533.348 223.963 533.348C223.963 533.348 230.681 544.31 234.924 547.844C236.962 549.654 239.219 551.201 241.643 552.446C241.643 551.024 241.294 550.32 241.294 550.32V550.32ZM118.574 500.808C118.574 500.808 118.574 500.454 118.22 500.454V500.099V499.75C118.22 499.395 117.865 499.046 117.865 499.046C109.729 512.129 93.8158 546.432 93.4615 550.679C93.1071 554.568 98.7675 565.534 100.535 565.175C100.535 565.175 100.889 565.175 101.243 564.826C99.1219 561.287 95.9373 554.568 96.2917 548.912C97.0004 542.543 110.792 516.022 117.157 504.347C117.865 506.823 119.633 513.187 121.05 515.309C122.108 517.076 123.172 517.785 124.235 518.139C124.589 516.726 124.589 516.022 124.589 516.022C121.754 512.124 119.278 503.988 118.574 500.808ZM231.39 494.444V493.026C226.439 488.788 220.074 473.579 220.074 473.579C211.583 480.652 197.792 484.186 197.792 484.186C193.903 493.381 188.951 514.954 189.306 517.785C190.014 520.256 198.5 532.994 203.452 535.115L204.161 532.281C199.918 528.038 191.427 514.6 191.427 514.6C192.84 501.158 199.559 486.662 199.559 486.662C207.695 485.244 219.011 476.758 219.011 476.758C219.011 476.758 224.667 492.672 226.788 494.085C228.206 495.148 229.977 494.798 231.39 494.444V494.444ZM258.62 504.697C256.4 497.407 254.747 489.958 253.673 482.414C245.896 490.191 234.575 494.439 234.575 494.439C234.575 494.439 233.866 505.76 233.512 510.707C233.157 515.658 227.856 522.732 228.21 525.911C228.21 529.096 240.59 545.364 245.536 545.718C246.245 545.718 246.6 545.718 247.658 545.364L246.595 542.179C246.595 542.179 241.648 539.708 237.405 535.111C233.162 530.154 232.099 527.329 231.395 524.853C230.686 522.732 231.749 522.377 233.871 516.013C236.347 510.003 237.055 495.852 237.055 495.852C243.424 493.73 252.614 486.303 252.614 486.303C252.614 486.303 252.964 490.546 255.449 500.449C257.561 509.998 261.105 518.129 262.518 522.377C263.581 525.562 264.639 529.096 264.989 530.513C265.698 529.45 266.411 528.392 267.11 527.683C267.469 522.736 262.163 516.017 258.62 504.697V504.697ZM283.728 580.734C283.028 548.907 269.94 531.931 269.94 531.931C269.94 531.931 253.673 551.024 245.532 551.024C245.532 551.024 244.832 566.942 240.939 577.195C240.939 577.195 254.731 600.182 260.741 600.536H262.163C261.455 599.119 260.392 597.706 258.27 596.293C252.614 592.05 243.42 578.258 243.42 578.258C243.42 578.258 249.075 565.884 248.367 554.209C256.857 550.674 269.581 535.819 269.581 535.819C269.581 535.819 274.188 542.893 277.722 559.515C280.557 572.603 280.194 582.856 279.494 586.39C281.257 584.268 282.665 582.152 283.728 580.734V580.734ZM250.488 433.616C250.488 433.616 249.075 437.504 249.425 440.334C249.425 443.165 252.26 451.655 254.022 453.068C255.794 454.481 256.493 452.359 256.493 452.359C256.493 452.359 259.678 437.15 263.222 432.557C263.222 432.552 256.494 434.674 250.488 433.616V433.616ZM286.208 387.992C304.593 383.749 317.326 392.235 317.326 392.235C315.205 386.929 307.777 384.808 307.777 384.808H309.2C301.059 382.686 292.218 383.04 289.398 383.395L286.208 387.992V387.992ZM184 267.04C188.597 264.918 222.196 282.958 222.196 282.958C197.088 264.569 177.281 262.802 166.314 258.2C163.135 257.141 159.596 255.369 156.057 253.602C157.12 255.015 157.829 257.141 154.29 257.491C151.11 257.491 145.095 256.428 140.498 255.719C188.243 273.045 217.953 288.963 217.953 288.963C210.525 278.002 179.757 269.161 184 267.04ZM310.608 288.259C310.608 288.259 296.811 287.555 291.864 285.783C291.864 285.783 298.583 292.502 303.889 291.794C309.195 291.085 310.608 288.259 310.608 288.259ZM298.937 296.75C298.937 296.75 290.806 298.517 284.791 296.75C284.791 296.75 291.16 303.469 294.694 302.056C298.233 300.634 298.937 296.75 298.937 296.75ZM286.912 302.406C286.912 302.406 279.135 304.173 273.475 302.76C273.475 302.76 278.072 308.061 282.315 306.998C286.563 305.59 286.912 302.406 286.912 302.406V302.406ZM270.29 395.769C271.703 399.308 275.247 399.308 278.067 400.012C275.242 398.599 273.12 397.536 272.761 394.352C272.062 390.813 276.655 386.216 285.849 383.74C277.009 385.162 268.518 391.172 270.29 395.769V395.769ZM478.95 421.591C478.95 421.591 482.834 423.712 484.606 426.542C486.728 429.373 485.315 432.198 484.606 434.679C483.543 438.922 481.771 444.936 481.771 444.936C481.771 444.936 482.13 441.397 481.771 438.567L478.95 421.591ZM494.864 478.171C493.451 478.526 490.98 482.773 489.917 484.895L489.208 492.317C489.208 492.317 490.98 489.487 492.393 487.72C493.805 485.953 491.679 484.186 494.864 478.171ZM156.416 327.159C158.082 326.881 159.734 326.526 161.367 326.096C177.281 323.266 203.452 324.329 203.452 324.329C196.379 320.086 184.354 325.033 181.878 321.499C179.048 317.61 202.039 316.902 202.389 315.134C192.84 314.78 181.878 316.193 171.266 317.61C172.329 318.314 173.388 319.023 172.329 320.79C170.916 322.208 163.135 325.038 156.416 327.159V327.159ZM206.986 399.308C206.277 394.357 210.171 384.453 210.171 384.453C208.049 389.405 202.389 395.769 196.728 406.027C196.024 407.09 195.665 408.503 194.961 409.566C197.083 407.444 199.204 406.027 199.559 407.794C199.913 410.27 196.024 419.465 193.549 425.479C201.331 412.042 207.695 402.842 206.986 399.308V399.308ZM188.243 364.297C185.767 361.117 201.68 351.918 201.68 351.918C194.744 355.161 188.012 358.821 181.519 362.879C182.937 362.879 185.058 363.588 183.995 366.418C182.932 369.249 174.092 375.967 169.494 379.506C190.005 365.714 206.627 357.224 206.627 357.224C197.792 358.282 191.073 367.477 188.243 364.297V364.297Z" fill="#346337"/>
<path fill-rule="evenodd" clip-rule="evenodd" d="M257.916 438.922C255.445 443.519 252.26 451.65 254.022 453.068C255.794 454.481 256.494 452.359 256.494 452.359C256.494 452.359 257.916 444.936 260.037 438.567L257.916 438.922Z" fill="#27824D"/>
<path fill-rule="evenodd" clip-rule="evenodd" d="M124.235 518.134C123.172 517.785 122.108 517.071 121.05 515.304C120.696 514.95 120.696 514.6 120.341 514.241C120.341 514.241 116.448 522.018 116.098 531.926C115.744 542.179 115.744 549.252 114.331 550.67C113.268 551.733 104.428 555.267 99.1266 560.923C99.481 561.277 99.481 561.631 99.8307 561.991V562.34C99.8307 562.34 100.185 562.695 100.185 563.044C100.539 563.399 100.539 563.753 100.539 563.753C100.539 564.103 100.539 564.103 100.894 564.103C100.894 564.457 100.894 564.811 101.248 564.811C102.661 563.748 104.433 560.209 107.967 558.442C111.501 556.675 117.87 554.908 118.929 552.432C119.992 549.602 119.633 541.47 121.05 533.689C121.754 528.392 123.521 521.319 124.235 518.134ZM154.644 551.378C156.765 548.907 154.29 535.819 157.829 527.683C157.829 527.683 157.125 526.62 155.707 525.207C154.644 529.096 151.11 541.121 150.755 545.723C150.401 551.024 141.206 552.087 137.667 560.219C136.963 561.991 136.604 563.403 135.9 564.462C139.085 563.758 152.877 553.859 154.644 551.378V551.378ZM195.67 537.232C195.316 541.834 192.84 552.442 191.073 555.981C188.951 560.578 175.155 567.297 173.038 568.355L174.096 569.418V572.952C178.694 571.889 190.364 566.588 194.257 560.578C197.796 555.272 199.563 543.956 200.267 540.417C198.855 539.354 196.729 538.295 195.67 537.232V537.232ZM192.486 480.293C191.64 480.74 191.003 481.502 190.714 482.414C187.884 488.07 183.995 505.755 180.81 510.707C177.98 515.304 169.849 515.304 167.373 517.071C165.601 518.134 165.251 519.906 164.897 522.023C172.674 520.96 183.286 516.721 185.762 511.066C189.651 503.284 190.714 492.672 194.957 483.832C194.961 483.832 193.903 482.419 192.486 480.293ZM197.088 479.589V479.234V479.589ZM197.792 479.589H197.437H197.792ZM198.146 479.938H197.792H198.146ZM223.963 455.185C222.9 454.481 221.133 454.122 219.011 454.122C218.657 457.66 217.948 462.258 216.535 465.088C215.122 469.326 203.098 474.278 196.729 476.758C197.437 478.526 198.146 479.938 198.146 479.938C200.976 479.938 216.89 472.515 219.715 468.622C222.196 464.734 224.317 454.122 223.963 455.185V455.185ZM231.39 494.444C229.978 494.798 228.21 495.148 226.793 494.089C226.793 494.089 226.439 493.74 226.089 493.026C226.089 500.454 222.55 517.43 220.783 520.964C218.661 525.207 207.345 530.159 205.573 531.576C204.515 532.64 204.161 534.048 203.806 535.115C208.758 536.883 219.72 528.746 224.671 522.382C229.269 517.076 231.036 499.041 231.39 494.444ZM243.769 479.234C240.939 481.356 237.755 486.307 235.988 489.138C240.231 487.371 252.959 477.822 252.959 477.822V471.098C251.547 472.515 246.954 477.118 243.769 479.234ZM264.984 530.513C264.984 529.45 264.285 527.683 263.571 525.562C260.037 531.217 251.547 539.708 245.891 541.83L246.59 542.179L247.653 545.364C256.144 542.893 265.343 529.809 264.984 530.513V530.513ZM239.167 571.54C241.294 566.942 241.643 557.393 241.643 552.796C239.876 552.442 237.4 551.733 237.4 554.209C237.755 557.393 237.4 565.529 235.279 569.418C233.153 573.307 221.837 579.321 219.361 581.443C217.948 582.506 217.948 584.627 218.298 586.395C222.196 587.807 236.342 577.55 239.167 571.54V571.54ZM279.494 586.39C279.844 585.327 279.844 583.56 279.844 581.089C277.722 582.856 273.125 587.453 269.581 591.342C266.047 595.23 261.804 597.352 260.392 598.06C261.1 598.769 261.804 599.832 262.163 600.536C267.819 599.123 278.422 588.157 279.494 586.39V586.39Z" fill="#49AA6A"/>
<path fill-rule="evenodd" clip-rule="evenodd" d="M379.222 690.725C380.285 692.137 379.922 691.788 380.985 693.555C383.82 693.2 391.946 693.909 397.607 698.157C397.607 697.803 397.607 697.803 397.257 697.448V697.094C395.84 694.259 391.247 691.429 379.222 690.725V690.725ZM314.855 594.526C304.243 593.463 297.175 594.88 293.99 595.944C293.99 597.002 293.631 597.711 293.631 598.415C297.874 597.352 308.137 595.23 325.108 598.06C344.211 601.245 370.023 608.672 376.392 610.794C354.814 600.182 334.657 597.002 314.855 594.526V594.526ZM290.806 547.49C291.155 548.553 291.505 549.611 291.869 550.32C295.753 549.616 302.83 548.907 311.671 549.616C329.002 551.029 347.396 555.272 347.396 555.272L344.915 554.209C335.371 551.378 323.351 548.553 313.088 547.84C299.996 546.786 293.99 547.136 290.806 547.49V547.49ZM270.64 501.158C270.64 501.862 270.999 502.93 271.349 503.634C274.533 502.93 279.839 502.216 288.33 502.57C297.874 502.925 311.316 504.338 311.316 504.338L310.608 503.983C307.035 502.906 303.362 502.195 299.646 501.862C284.437 500.099 274.184 500.808 270.64 501.158ZM283.728 468.268C273.125 467.205 267.469 467.913 264.635 468.268V470.389C268.518 469.326 278.781 467.913 286.563 468.972C286.563 468.977 285.5 468.627 283.728 468.268V468.268Z" fill="white"/>
<path fill-rule="evenodd" clip-rule="evenodd" d="M290.806 383.04C290.806 383.04 276.31 383.744 270.64 392.235C270.64 392.235 274.183 381.269 290.806 383.04ZM401.85 247.233C400.087 246.17 398.665 242.636 396.903 240.869C395.131 239.456 390.184 240.514 390.184 240.514L391.247 242.636C395.49 242.99 396.194 246.529 397.966 247.942C400.087 249.355 401.85 247.233 408.219 251.481C412.112 253.957 414.234 256.787 415.996 258.554C416.355 250.418 403.272 248.296 401.85 247.233V247.233ZM301.059 246.175C297.874 246.884 288.684 248.296 287.271 250.068C286.563 250.777 286.208 251.481 285.849 252.544C289.393 251.127 295.398 249.359 300.355 249.359C307.773 249.359 305.302 252.898 305.302 252.898C305.302 252.898 312.729 248.655 324.045 249.005C335.366 249.714 344.211 267.749 344.211 267.749C344.211 267.749 346.682 263.86 344.211 261.03C344.211 261.03 346.682 260.675 349.508 264.923C352.342 269.166 353.75 272.7 356.236 275.176C357.712 276.658 359.531 277.752 361.532 278.361L360.833 275.176C360.833 275.176 362.595 274.822 365.78 279.069C368.965 283.312 373.557 293.216 378.514 296.396C378.514 296.396 370.023 278.006 367.197 275.176C364.363 271.996 359.77 270.933 357.998 270.224C356.236 269.52 348.808 259.971 347.395 258.554C345.624 256.787 344.561 258.908 342.439 257.491C340.318 256.073 328.642 243.699 324.045 242.636C319.802 241.932 311.671 247.233 307.777 248.296C304.243 249.355 304.243 245.466 301.059 246.175V246.175ZM397.607 262.797C404.335 265.977 408.578 264.564 417.418 272.696C425.899 280.832 426.963 292.148 426.963 292.148C429.084 291.794 433.332 291.794 433.332 291.794C433.332 291.794 429.448 278.356 419.894 269.157C410.345 260.316 403.626 262.083 397.257 258.549C393.373 256.782 390.538 254.656 387.354 253.243L383.111 252.18C383.106 252.185 391.247 259.612 397.607 262.797V262.797ZM434.39 299.575C440.405 302.76 448.536 304.881 452.784 308.77C456.668 313.008 455.619 325.392 455.619 325.392C455.619 325.392 458.09 318.319 456.673 313.013C455.619 307.357 452.439 302.406 443.594 299.575C434.744 296.391 426.963 292.148 426.963 292.148C426.963 292.148 428.38 296.396 434.39 299.575ZM460.561 338.126C467.989 347.32 466.93 350.151 466.93 350.151C468.343 348.738 469.052 345.553 469.052 343.432C466.217 338.126 459.148 332.47 454.556 329.64C452.075 327.868 448.541 324.334 446.769 321.858C449.245 328.222 455.964 332.82 460.561 338.126V338.126ZM453.493 397.541H453.842C450.658 396.124 448.187 395.42 448.187 395.42C448.187 395.42 461.624 403.906 468.693 414.163C476.12 424.421 477.183 434.679 478.955 441.038C480.717 447.762 481.426 447.762 481.426 447.762V440.334C481.426 438.213 480.717 439.271 480.717 437.15C473.999 405.673 453.493 397.541 453.493 397.541ZM418.831 530.868C418.831 530.868 415.297 529.805 413.175 532.989C411.054 536.523 411.054 539.354 411.054 539.354C411.054 539.354 414.234 533.698 418.831 530.868V530.868ZM460.212 520.256C460.212 520.256 455.255 516.367 451.012 514.246C446.415 511.775 442.531 510.357 437.225 509.648C431.56 509.294 425.55 513.887 425.55 513.887C425.55 513.887 430.506 512.828 433.681 512.828C436.861 512.479 445.002 513.542 460.212 520.256ZM405.393 486.307C405.393 486.307 398.316 485.244 395.49 491.613C392.655 497.624 395.49 506.469 395.49 506.469C395.49 506.469 394.781 499.75 397.602 494.089C400.437 488.429 405.393 486.307 405.393 486.307ZM482.485 521.319C478.591 522.382 474.707 524.858 474.707 524.858C479.305 526.27 481.077 525.207 481.776 524.149C482.135 523.44 482.485 522.023 482.485 521.319V521.319ZM499.466 494.085C498.559 494.555 497.724 495.151 496.985 495.856L496.286 497.624C496.286 497.624 499.111 497.269 500.529 498.687C501.228 499.75 501.942 505.051 501.942 507.881C502.291 507.527 502.641 507.173 503.005 506.464C505.126 502.221 503.704 496.915 503.005 495.502C502.641 494.444 501.587 492.317 499.466 494.085ZM489.203 422.999C485.32 419.115 478.95 421.586 478.95 421.586C478.95 421.586 484.956 421.936 487.082 424.416C488.504 426.183 489.917 430.072 490.616 432.193C489.917 430.781 492.738 426.538 489.203 422.999ZM304.243 332.82C310.258 335.296 318.04 345.199 318.04 345.199L314.496 338.834C310.962 333.174 306.365 331.407 302.122 329.994C297.879 328.931 293.99 329.994 293.99 329.994C293.99 329.994 298.233 330.344 304.243 332.82V332.82ZM171.266 149.976C167.378 140.427 125.997 107.183 96.646 76.7689C67.2951 46.3549 64.1105 35.3931 64.1105 35.3931C64.1105 35.3931 64.4649 37.869 65.1736 42.1119C69.4166 48.8307 83.2085 68.9918 104.433 88.7937C135.91 117.795 162.076 144.67 171.271 151.743C170.916 149.976 171.266 149.976 171.266 149.976ZM150.401 42.8207C150.047 40.6992 146.862 36.8106 144.037 31.8589C142.265 29.3831 141.206 23.7227 139.794 19.4797C139.439 22.6596 139.09 27.9656 140.498 30.7958C142.269 35.0388 145.449 37.1602 145.449 39.2817C145.804 41.7576 147.925 43.5247 147.925 43.5247C147.925 43.5247 147.571 43.175 150.401 42.8207V42.8207ZM153.94 55.9086H153.586V56.2629C153.586 55.9086 153.586 55.9086 153.94 55.9086ZM151.818 49.5394C151.818 51.3065 153.586 52.7193 153.586 55.5495C154.294 55.5495 155.707 54.8407 155.357 54.132C154.294 50.9522 152.882 47.0589 151.114 44.9374C150.051 44.583 148.993 44.583 148.284 44.9374C146.158 46.3596 151.464 47.7723 151.818 49.5394V49.5394ZM153.586 56.2582C153.231 56.2582 153.231 56.2582 153.586 56.2582V56.2582ZM157.125 57.3213C155.707 57.3213 154.294 57.6757 153.94 58.0253C152.877 59.7971 157.125 61.2099 158.537 65.0985C159.95 68.6374 159.95 69.3414 159.95 69.3414L164.193 69.6958C163.489 66.8656 159.241 60.1515 157.125 57.3213ZM171.62 86.6723C171.975 86.3179 172.684 86.3179 173.392 86.6723C173.392 83.4924 167.382 75.0018 165.256 72.526V72.1716C163.135 72.526 161.367 72.8803 160.304 73.2347C160.304 73.2347 166.669 78.8951 167.378 82.075C167.732 83.8468 169.499 85.6139 171.62 86.6723ZM190.718 111.431C191.427 111.076 191.782 111.076 192.49 111.076C192.136 108.955 181.524 94.8085 176.931 90.2112H171.98C171.98 90.2112 179.757 95.1629 182.941 100.469C185.417 104.712 188.247 110.018 189.306 111.431H190.718V111.431ZM202.743 123.81C202.389 122.038 199.204 116.737 193.549 113.198C192.49 112.494 190.718 112.494 189.306 112.843C188.319 113.361 187.372 113.953 186.475 114.615C195.316 115.319 199.204 122.038 200.622 124.868C200.976 124.519 201.68 124.159 202.743 123.81ZM204.865 125.927C203.4 126.233 201.976 126.709 200.622 127.344C200.622 127.344 206.632 129.466 210.171 135.83L214.414 136.184C213.001 133.713 208.753 128.407 204.865 125.927ZM223.963 149.272C223.963 149.272 224.317 149.272 224.667 149.627C225.375 149.272 226.439 148.923 227.497 148.923C225.375 146.092 220.424 141.141 216.885 139.374C215.822 138.665 213.346 139.019 212.288 139.019C211.224 139.374 210.52 139.728 210.52 139.728C218.302 140.782 222.55 147.151 223.963 149.272V149.272ZM235.988 163.064H238.109C238.109 163.064 238.463 162.71 239.167 162.71C240.23 162.006 241.294 161.647 241.294 161.647C241.294 161.647 237.4 156.341 232.099 152.452C229.977 152.806 226.439 153.515 223.963 154.219C223.963 154.224 233.512 155.282 235.988 163.064V163.064ZM244.119 163.773C241.998 164.127 239.876 164.482 239.522 165.186C239.522 165.186 244.469 166.957 248.012 170.846C251.197 174.735 250.134 178.274 250.134 178.274L252.959 177.919H253.318C254.018 177.565 255.44 177.215 256.853 176.861C256.494 175.089 250.139 169.429 244.119 163.773ZM262.863 192.42C262.863 192.42 267.819 192.42 271.353 193.833C274.887 194.896 277.722 203.027 279.494 203.382C280.194 203.736 282.32 203.736 283.728 203.736C284.436 203.382 285.15 203.027 285.849 203.027C285.15 201.969 279.49 194.896 273.824 191.002C272.062 189.59 269.581 189.939 267.819 189.939C267.819 189.939 268.882 188.527 270.645 188.527C268.882 185.696 262.163 180.041 259.328 177.914C256.857 178.978 255.445 181.099 255.445 181.099C255.445 181.099 259.678 185.342 263.926 188.172C268.518 190.648 262.863 192.42 262.863 192.42ZM292.577 218.591H297.175L299.646 217.528C298.233 214.698 290.806 207.624 288.684 206.207C287.271 204.794 283.728 205.503 281.965 205.853C280.194 206.561 278.422 207.625 277.722 208.329C277.722 208.329 283.378 206.916 287.975 211.159C292.577 215.052 292.577 218.591 292.577 218.591V218.591ZM301.059 220.358C299.646 219.654 294.689 220.358 294.689 220.358C294.689 220.358 299.646 222.834 302.467 227.786C303.889 230.261 304.238 234.859 304.238 237.689C307.773 237.335 310.608 237.335 310.608 237.335C310.608 230.616 302.471 221.062 301.059 220.358V220.358ZM386.291 246.884C384.528 238.043 378.159 226.018 373.203 221.776C372.14 220.712 370.732 220.008 369.669 219.3C364.712 219.3 362.591 223.543 362.591 223.543C362.591 223.543 368.96 223.188 372.14 226.727C375.324 229.907 380.63 242.995 381.339 244.762C384.169 245.82 386.291 246.884 386.291 246.884ZM358.357 203.736C361.532 205.508 366.134 215.052 366.838 216.469C368.261 216.115 369.319 215.761 369.319 215.761C369.319 215.761 365.426 204.799 360.828 200.556C359.765 199.493 358.707 199.139 357.644 198.435C354.11 199.139 351.275 201.974 351.275 201.974C351.275 201.974 354.814 201.614 358.357 203.736V203.736ZM354.11 195.954C355.872 195.6 357.294 195.245 357.294 195.245C357.294 195.245 350.925 181.453 347.032 178.978C346.332 178.623 345.969 178.269 345.269 178.269C341.026 177.914 336.779 180.745 336.779 180.745C336.779 180.745 341.726 180.39 345.619 183.575C348.804 186.051 353.051 193.833 354.11 195.954ZM342.789 176.502L343.148 176.147C342.789 175.084 341.026 168.72 337.842 165.186C336.418 163.806 334.733 162.725 332.885 162.006C329.701 163.064 326.88 165.545 326.88 165.545C326.88 165.545 330.764 165.19 333.948 166.957C336.783 168.37 340.667 174.735 341.376 176.506L342.789 176.502V176.502ZM331.827 159.176C331.827 159.176 330.065 152.457 326.53 148.923C325.108 147.859 323.696 147.151 322.287 146.447C318.744 146.447 316.622 148.568 316.622 148.568C316.622 148.568 320.166 148.923 323.7 151.039C326.171 152.811 328.647 158.112 329.706 159.884L331.827 159.176V159.176ZM318.739 144.321C320.861 143.612 322.283 143.612 322.283 143.612C322.283 143.612 316.977 134.772 313.792 131.941C312.408 130.95 310.848 130.23 309.195 129.82C306.36 130.529 304.238 131.587 304.238 131.587C304.238 131.587 307.423 132.296 311.316 134.772C314.496 136.539 318.04 142.199 318.739 144.321V144.321ZM310.258 128.762C310.258 128.762 304.593 120.984 299.646 117.8C298.233 116.737 296.461 116.028 295.049 116.028C292.214 116.382 290.442 118.858 290.442 118.858C290.442 118.858 294.685 119.213 298.583 120.63C301.767 122.043 306.36 127.349 308.132 129.116L310.258 128.762V128.762ZM292.927 112.494C289.393 105.421 281.606 102.236 281.606 102.236C281.606 102.236 281.606 101.882 281.257 101.532C279.135 101.532 278.785 102.595 280.907 104.003C284.092 105.421 290.81 113.198 291.869 114.261L292.927 112.494ZM275.951 94.8085C272.416 92.3327 269.232 92.687 269.232 92.687L271.353 91.2743C267.469 86.677 258.62 81.0166 258.62 81.0166C259.328 77.4824 254.022 76.0649 244.473 66.1616C237.405 58.734 230.686 44.9421 227.147 39.2864C229.977 53.7871 243.065 66.8703 245.537 70.0549C248.017 72.8851 245.537 73.9434 245.537 73.9434C245.537 73.9434 251.551 77.8367 254.386 80.6622C257.212 83.4924 256.857 85.2595 256.857 85.2595C256.857 85.2595 261.455 87.0266 263.926 89.5025C266.761 91.9736 264.989 93.7454 264.989 93.7454C264.989 93.7454 270.645 94.4541 273.829 97.2844C275.633 99.0444 278.037 100.056 280.557 100.115C279.494 98.6971 278.072 96.2213 275.951 94.8085V94.8085ZM205.569 177.565C229.618 201.969 247.653 207.984 251.896 211.872C256.139 216.115 255.44 218.237 260.037 224.606C264.28 230.616 264.984 226.373 270.29 235.213C273.475 240.519 275.946 245.471 277.368 249.005C277.368 244.408 277.718 237.689 277.009 235.567C276.659 232.737 268.169 229.198 264.984 225.664C261.45 222.48 256.144 210.455 254.731 208.688C252.959 206.566 237.4 203.736 210.171 178.982C182.587 153.874 172.329 126.994 172.329 126.994C172.329 126.994 174.451 134.772 177.281 142.908C182.587 151.039 191.427 163.419 205.569 177.565V177.565ZM417.768 393.648C417.768 393.648 417.059 389.754 416.705 386.929C414.234 382.686 406.093 370.307 402.558 368.185C402.209 367.831 401.495 367.481 400.787 367.127L400.437 367.481C400.437 367.477 408.219 372.428 417.768 393.648ZM428.73 361.821C428.021 361.467 426.958 361.467 426.258 361.117C430.142 363.947 435.448 369.603 438.283 375.263C441.818 382.336 443.589 391.531 443.589 391.531C443.589 391.531 446.06 387.642 445.002 383.045V385.167C441.817 374.904 434.036 365.006 428.73 361.821V361.821ZM455.614 369.952C454.905 371.016 454.192 371.72 453.493 372.428C454.192 373.846 454.192 376.317 454.192 377.026C457.027 372.074 455.614 369.952 455.614 369.952V369.952ZM458.789 387.638C458.789 386.929 458.44 384.453 458.09 383.744C457.317 382.335 456.227 381.125 454.905 380.21C455.255 383.39 454.905 385.516 454.556 386.575C455.964 386.929 458.44 388.342 458.789 387.638V387.638ZM455.255 388.342L453.842 387.987C457.027 391.526 458.44 395.765 459.498 398.24C461.969 398.949 463.741 399.658 463.741 399.658C462.683 395.065 458.085 390.818 455.255 388.342ZM495.572 465.797C494.509 460.845 492.038 464.03 490.266 456.248C489.917 461.554 490.975 463.321 492.388 465.797C493.801 468.268 494.509 470.035 493.451 474.987C494.864 473.933 496.281 470.035 495.572 465.797V465.797ZM418.481 417.697C418.481 417.697 424.487 416.989 426.613 418.401C428.739 419.814 436.866 423.353 437.225 422.29C437.575 420.877 439.346 420.877 440.409 423.353C441.473 425.829 442.881 430.776 445.356 432.548C447.828 434.315 453.497 435.732 455.26 438.917C456.53 440.821 457.828 442.707 459.153 444.573L458.444 436.795L450.667 429.368L436.171 415.222L422.375 414.158L418.481 417.697V417.697ZM333.599 353.685C321.924 345.194 320.511 336.354 320.511 336.354C320.511 337.063 320.161 337.767 320.161 338.475C320.861 342.014 320.511 345.194 333.249 355.452C345.624 366.059 363.304 362.879 363.304 362.879L361.183 360.758C352.692 361.467 345.269 362.171 333.599 353.685V353.685ZM296.816 327.514C298.937 326.096 299.651 326.096 299.651 326.096C293.636 321.853 281.257 323.625 278.786 323.975V323.62C290.097 323.979 293.277 325.747 296.816 327.514ZM494.864 478.171C494.514 478.88 494.164 479.938 493.801 480.647C494.864 480.293 495.922 479.938 496.636 480.647C498.407 482.06 499.107 484.536 499.47 485.599V484.895C499.815 482.06 496.636 478.171 494.864 478.171ZM27.6817 221.062C27.6817 221.062 72.2468 230.257 97.3548 236.621C124.235 242.986 156.061 253.598 156.061 253.598C156.061 253.598 142.978 245.461 103.37 235.563C63.7562 226.014 27.6817 221.062 27.6817 221.062V221.062ZM22.026 374.904C22.026 374.904 61.2803 353.33 107.962 337.063C154.29 320.44 171.266 317.61 171.266 317.61C171.266 317.61 148.28 319.732 107.962 334.587C67.6447 349.442 22.026 374.904 22.026 374.904ZM90.6313 447.403C90.6313 447.403 100.535 441.747 105.841 434.674C111.147 427.601 131.303 404.964 146.158 390.818C161.363 377.026 181.519 362.879 181.519 362.879C181.519 362.879 155.702 378.084 143.328 390.109C131.303 402.488 109.729 427.242 104.778 433.256C100.535 438.922 90.6313 447.403 90.6313 447.403V447.403ZM194.961 409.566C194.961 409.566 185.767 425.834 180.815 439.985C175.863 454.481 170.912 467.569 167.727 479.593C164.897 491.618 164.897 501.522 161.717 508.236C164.193 496.92 163.489 490.555 166.314 479.593C169.145 468.632 176.927 447.407 179.048 440.693C181.169 433.965 186.121 422.649 194.961 409.566V409.566Z" fill="#49AA6A"/>
<path fill-rule="evenodd" clip-rule="evenodd" d="M326.167 320.086C326.167 320.086 329.351 313.367 339.963 316.198C339.963 316.198 341.026 319.382 343.148 321.858C345.269 324.334 348.095 326.455 349.153 328.577C350.575 330.344 352.338 336.004 352.338 336.004C352.338 336.004 339.255 319.382 326.167 320.086V320.086Z" fill="#346337"/>
<path fill-rule="evenodd" clip-rule="evenodd" d="M364.013 355.457C364.013 355.457 360.479 354.753 358.707 351.568C356.586 348.029 352.338 341.31 352.338 341.31C352.338 341.31 348.454 348.738 341.376 349.092C333.949 349.447 328.288 344.495 327.23 337.422C325.817 328.227 330.764 323.984 330.764 323.984C330.764 323.984 327.23 323.275 324.759 324.339C324.759 324.339 320.865 337.426 329.002 346.616C337.492 355.811 347.032 358.641 353.051 358.996C358.707 359.695 364.013 355.457 364.013 355.457V355.457Z" fill="white"/>
<path fill-rule="evenodd" clip-rule="evenodd" d="M358.707 351.563C356.585 348.024 352.338 341.306 352.338 341.306C352.338 341.306 351.275 342.723 349.867 344.49C355.173 350.5 359.056 355.102 360.479 357.578C362.591 356.515 364.013 355.457 364.013 355.457C364.013 355.457 360.479 354.748 358.707 351.563ZM327.938 328.931C329.002 325.747 330.764 323.979 330.764 323.979C330.764 323.979 327.23 323.271 324.759 324.334C324.759 324.334 324.409 325.747 324.05 328.222C324.759 328.222 326.167 328.222 327.938 328.931V328.931Z" fill="#D1C9C0"/>
<path fill-rule="evenodd" clip-rule="evenodd" d="M349.507 337.063C349.507 337.063 349.867 341.306 345.624 344.136C341.381 346.612 332.89 348.029 329.356 337.063C326.885 329.281 333.249 325.038 333.249 325.038L335.72 326.81C335.72 326.81 332.536 333.174 336.42 342.728C336.42 342.728 338.55 333.883 343.148 332.116C343.148 332.111 346.682 332.82 349.507 337.063ZM438.633 362.879C438.633 362.879 440.046 365.355 441.817 366.418C441.817 366.418 445.002 365.355 445.701 361.467L448.182 358.991C448.182 358.991 450.653 364.651 445.347 369.953C445.347 369.953 441.104 368.181 438.279 364.647L438.633 362.879V362.879Z" fill="#DB812E"/>
<path fill-rule="evenodd" clip-rule="evenodd" d="M447.823 371.72C447.823 371.72 453.838 369.598 454.551 364.647C455.614 359.34 451.366 356.865 451.366 356.865C451.366 356.865 453.493 366.418 447.823 371.72Z" fill="white"/>
<path fill-rule="evenodd" clip-rule="evenodd" d="M451.721 362.53C452.43 362.53 453.842 362.53 454.905 363.234C454.905 358.991 451.371 356.869 451.371 356.869C451.371 356.869 452.071 359.345 451.721 362.53V362.53Z" fill="#D1C9C0"/>
<path fill-rule="evenodd" clip-rule="evenodd" d="M235.284 351.918C235.284 351.918 228.21 345.199 225.026 333.528C225.026 333.528 221.487 343.077 223.608 346.612C225.73 350.505 223.963 365.006 223.963 365.006C223.963 365.006 230.681 351.563 235.284 351.918V351.918ZM411.753 299.221C411.753 299.221 408.578 292.857 406.806 287.196C404.685 281.541 402.209 275.88 397.257 270.574C392.31 265.268 381.698 262.083 381.698 262.083C381.698 262.083 387.703 270.574 392.66 273.754C397.966 277.293 401.5 283.657 403.622 286.842C405.743 290.026 411.753 299.221 411.753 299.221ZM335.012 394.357C335.012 394.357 355.527 396.478 367.902 419.115C367.902 419.115 361.532 398.6 346.687 391.172C346.687 391.172 348.808 393.648 348.1 394.711C347.396 395.769 344.211 395.769 335.012 394.357V394.357ZM427.322 456.602C427.322 456.602 424.487 454.835 421.307 450.592C418.122 445.99 416.71 439.63 416.71 439.63L419.894 443.519C419.894 443.519 421.307 441.397 422.016 437.863C422.715 434.324 424.137 429.373 424.137 429.373L426.258 428.669C426.258 428.669 427.671 429.373 430.142 430.081C432.977 430.785 435.798 429.732 436.861 431.853C436.861 431.853 431.555 433.266 429.443 434.324C427.671 435.742 430.506 437.863 430.506 437.863L438.638 438.926C438.638 438.926 446.415 449.534 446.769 454.131C447.478 458.733 446.769 462.267 444.298 467.219C439.701 468.636 433.686 463.685 433.686 463.685C433.686 463.685 435.458 463.33 436.871 462.622C439.706 461.559 440.055 461.204 437.23 456.612C436.871 455.903 434.395 453.781 433.686 453.077C430.861 450.956 429.089 449.538 428.03 450.242C426.958 451.296 427.322 456.602 427.322 456.602V456.602ZM429.084 464.734C429.084 464.734 437.924 473.928 441.109 479.589C441.109 479.589 447.828 478.171 449.25 481.71C449.25 481.71 452.434 479.938 453.847 481.356C453.847 481.356 454.556 477.822 452.434 476.404C450.313 474.987 443.594 474.283 441.473 473.933C439.346 473.933 435.448 466.146 429.084 464.734Z" fill="black"/>
<path fill-rule="evenodd" clip-rule="evenodd" d="M417.768 457.661C417.768 457.661 417.059 452.709 412.812 449.883C408.578 446.699 405.743 448.112 406.093 444.223C406.452 439.985 409.277 441.038 409.636 438.567C409.636 436.446 409.986 435.028 411.049 433.261C412.112 431.494 413.875 430.785 414.583 429.018C415.292 427.251 414.234 423.008 418.117 419.12C422.011 414.872 428.021 416.644 429.438 418.052C431.201 419.824 434.385 419.824 434.385 419.824C434.385 419.824 432.264 416.639 435.448 417.348C438.633 418.057 442.526 421.945 443.589 424.421C444.643 426.897 444.289 429.373 447.124 431.14C449.595 432.557 456.313 435.383 457.377 437.863C458.44 440.334 457.726 441.752 459.498 444.936C459.498 440.693 461.27 440.693 458.085 435.028C455.25 429.373 451.367 429.727 448.182 425.479C444.997 421.232 441.463 415.93 438.633 414.867C436.162 413.809 435.798 414.518 432.977 413.809C430.506 413.1 422.365 411.683 419.53 412.391C416.705 413.1 411.049 418.047 410.69 419.115C410.69 420.528 410.69 426.892 409.991 427.955C409.282 428.659 408.578 429.014 407.51 431.135C406.456 433.257 405.748 437.504 404.685 438.563C403.622 439.98 401.85 445.985 404.685 449.883C407.505 453.772 412.112 450.587 417.768 457.661V457.661ZM163.839 491.614C163.839 491.614 165.251 482.065 167.727 474.283C170.203 466.86 173.737 454.481 173.737 454.481C173.737 454.481 164.188 481.356 161.008 483.482C161.013 483.477 163.135 487.366 163.839 491.614ZM102.306 434.674C102.306 434.674 103.37 431.135 102.661 430.072C102.661 430.072 119.637 411.328 123.526 407.085C127.419 402.488 131.662 402.134 131.662 402.134C131.662 402.134 107.962 427.246 102.306 434.674ZM42.1824 362.171C42.1824 362.171 54.2072 356.865 60.5716 353.685C66.9407 350.5 99.8306 337.063 99.8306 337.063C99.8306 337.063 59.5132 350.5 54.2072 349.442C54.2072 349.442 50.3186 357.578 42.1824 362.171V362.171ZM42.1824 222.125C42.1824 222.125 47.134 221.421 49.9642 219.654C49.9642 219.654 55.9743 223.543 87.4514 231.679C87.4514 231.674 51.0226 222.834 42.1824 222.125Z" fill="black"/>
<path fill-rule="evenodd" clip-rule="evenodd" d="M127.414 463.321C128.827 461.554 129.536 460.136 129.536 460.136C106.904 463.675 93.4662 483.836 93.4662 483.836C109.38 468.977 122.817 464.379 127.414 463.321ZM115.035 487.016C84.9709 495.502 72.2421 513.183 72.2421 513.183C73.6548 513.183 75.0723 512.833 76.4803 512.833C93.4568 496.206 110.788 491.259 115.385 490.196C115.035 488.429 115.035 487.016 115.035 487.016ZM96.6461 526.27C55.2703 537.946 50.673 557.393 50.673 557.393C52.0857 556.689 53.1488 556.33 54.2119 556.33C67.6495 539.708 87.8105 533.344 93.8206 531.577C95.583 528.392 96.6461 526.27 96.6461 526.27Z" fill="#27824D"/>
<path fill-rule="evenodd" clip-rule="evenodd" d="M331.123 331.757C331.123 332.82 332.536 333.169 333.948 332.82C335.371 332.82 336.42 331.757 336.42 330.698C336.07 329.635 335.007 329.281 333.594 329.635C331.827 329.64 330.764 330.698 331.123 331.757ZM438.983 362.879C438.983 363.588 439.691 363.942 440.754 363.588C441.817 363.588 442.526 362.879 442.526 362.171C442.526 361.467 441.463 361.112 440.405 361.467C439.696 361.467 438.633 362.171 438.983 362.879V362.879Z" fill="white"/>
</g>
</svg>
