<svg width="195" height="68" viewBox="0 0 195 68" fill="none" xmlns="http://www.w3.org/2000/svg">
<path fill-rule="evenodd" clip-rule="evenodd" d="M14.0946 49.0232C12.8868 49.3569 11.8912 49.4756 11.1702 49.4198C11.0858 49.4126 11.0018 49.4028 10.9182 49.3904C11.5145 48.6417 12.6489 47.794 14.0877 47.0114L14.0946 49.0232V49.0232ZM43.9629 41.678C43.758 41.8681 43.5537 42.0546 43.3488 42.2366C43.671 42.3901 43.9886 42.544 44.3014 42.6984C44.1981 42.356 44.0852 42.0158 43.9629 41.678V41.678ZM13.8535 7.32015C13.7445 7.25412 13.5124 7.14391 13.067 7.04397L10.5839 6.48761V0H38.5177L38.7692 0.00803072C39.015 0.0240925 43.0727 0.314543 47.1712 2.58282C51.0293 4.7177 55.5753 8.99459 55.7833 17.1312C55.9521 23.7397 53.6769 30.1345 49.068 36.1256C48.0367 37.4614 46.9174 38.7464 45.7156 39.9746C47.8451 41.0133 61.4874 48.2067 66.1581 64.0217L67.2427 67.6932L64.1623 64.9631C54.5976 56.4861 38.8222 53.3246 35.553 53.5017L31.7961 53.7047L34.7435 51.7117C36.252 50.6922 37.661 49.8249 39.0139 49.1106C37.9795 48.6685 36.9348 48.244 35.8805 47.8373C29.1783 52.0107 16.2041 59.2005 7.53907 57.7505C4.7494 57.2834 2.55603 56.0096 1.09623 53.9809C-0.00360275 52.4541 -0.262448 50.6994 0.259434 48.8996C0.384047 48.1123 0.663387 47.3485 1.08575 46.6402C3.31894 42.859 8.39315 39.6427 13.9573 38.0142L13.8535 7.32015V7.32015ZM35.8748 19.5837C35.9638 24.2046 35.0458 28.2419 32.9012 32.2556V13.3933C34.4391 14.6532 35.8177 16.603 35.8748 19.5837Z" fill="white"/>
<path fill-rule="evenodd" clip-rule="evenodd" d="M31.7212 11.3588C34.0183 12.5589 36.9667 14.9869 37.0548 19.5668C37.1737 25.7229 35.5504 30.9024 31.7212 36.2897V11.3588ZM11.0728 50.3335C9.95041 50.2465 9.69942 49.8579 9.60458 49.7111C9.58886 49.658 9.62187 49.3792 10.0217 48.8772C10.9743 47.6789 12.9413 46.4078 15.1619 45.4204L15.1745 49.1342L15.1766 49.6728C13.5821 50.189 12.1616 50.4192 11.0728 50.3335V50.3335ZM44.883 40.7299C44.883 40.7299 45.5186 42.3593 46.0179 44.7583C44.5184 43.9499 42.9825 43.1914 41.4137 42.4847C43.6181 40.6179 45.9781 38.3064 48.0803 35.5745C52.5719 29.737 54.7663 23.5389 54.6033 17.1526C54.4047 9.39075 50.1024 5.40298 46.5288 3.4247C42.6708 1.28983 38.841 1.02035 38.6801 1.00964L38.5984 1.00473H11.7639V5.71261L13.3673 6.07132C14.7689 6.38587 14.9979 6.90118 15.033 7.02611L15.1399 38.7414C9.45682 40.2298 4.29773 43.4381 2.14051 47.0913C1.76736 47.7159 1.52396 48.3908 1.42109 49.0861C0.945837 50.6704 1.17377 52.1646 2.10226 53.4544C3.38443 55.2355 5.29014 56.3491 7.76699 56.7631C15.8782 58.1208 28.5087 51.1933 35.3157 46.9423C35.4488 46.8593 35.5887 46.7714 35.7322 46.679C37.4897 47.338 39.4064 48.1273 41.4971 49.0669C39.6458 49.8677 37.6898 51.0023 35.4786 52.4983C39.0915 52.3024 55.2064 55.5746 65.0127 64.2666C60.0805 47.5669 44.883 40.7299 44.883 40.7299V40.7299Z" fill="black"/>
<path fill-rule="evenodd" clip-rule="evenodd" d="M53.109 17.1927C52.7652 3.71513 39.1732 2.8362 39.1732 2.8362H13.9148V4.30139C17.1834 5.03398 17.1834 6.93819 17.1834 6.93819L17.2955 40.1606C9.24356 41.9078 1.01028 48.4346 3.93566 52.4987C9.20845 59.8238 27.641 49.8739 34.7 45.4663C42.4423 40.6322 53.4527 30.6703 53.109 17.1927V17.1927ZM7.72035 50.5941C6.13584 48.1411 11.787 44.251 17.3029 42.6198L17.3254 49.1293C20.5924 47.9372 25.7143 43.9115 28.2514 41.7065C29.0248 41.8721 29.2962 41.8382 29.5703 41.9506C29.3104 42.2294 28.6365 43.1338 28.3656 43.4153C21.2322 50.8399 10.2475 54.5069 7.72035 50.5941V50.5941ZM30.8613 40.6759C30.8613 40.6759 30.33 41.2894 29.5708 41.1689V8.54972C29.5708 8.54972 39.0333 10.6003 39.2062 19.5364C39.3577 27.4446 36.8122 33.747 30.8613 40.6759V40.6759Z" fill="#27824D"/>
<path fill-rule="evenodd" clip-rule="evenodd" d="M38.1221 43.1097L53.1147 51.5493L48.2475 47.8805C48.6866 46.6188 47.1435 44.5928 46.8637 43.0906C53.2793 47.4214 58.4362 53.2983 62.3341 60.721C59.3532 56.8153 47.7162 51.9571 39.6301 51.6452C42.1253 50.5664 44.2621 49.8789 46.0379 49.5826L50.7924 51.4074L35.7894 44.7681L38.1221 43.1097V43.1097Z" fill="#27824D"/>
<path fill-rule="evenodd" clip-rule="evenodd" d="M28.7492 42.756C24.1198 41.8618 21.5801 41.3791 17.2573 42.9764L17.2327 42.6511C21.6336 41.0257 24.331 41.5549 29.0431 42.4646L28.7492 42.756V42.756ZM17.2861 39.8349C21.0944 38.9453 25.7657 39.1702 31.0683 40.4283L30.7953 40.7777C25.5351 39.528 20.9765 39.283 17.2594 40.1522L17.2861 39.8349Z" fill="black"/>
<path fill-rule="evenodd" clip-rule="evenodd" d="M15.1682 4.2916L14.9926 4.23895C14.8134 4.1856 14.6318 4.13827 14.4482 4.09707L14.3503 4.07566V3.19226H38.0645C38.0739 3.19315 43.2335 3.52777 47.3017 6.92439L47.1225 7.08813C45.1728 5.6216 43.0433 4.81316 41.3975 4.37057C39.8182 3.94627 38.6896 3.86061 38.6089 3.85481H15.1682V4.2916V4.2916Z" fill="#D1C9C0"/>
<path fill-rule="evenodd" clip-rule="evenodd" d="M27.9994 39.3415L27.8904 39.325V6.73615L28.0408 6.75444C28.047 6.75533 31.8716 7.22157 34.6549 9.72898L34.4695 9.88693C33.1679 8.83756 31.6798 8.21918 30.5155 7.8627C29.9154 7.6762 29.2979 7.53322 28.6695 7.43528V39.4486L28.5134 39.4232C28.3423 39.395 28.1709 39.3677 27.9994 39.3415V39.3415Z" fill="#346337"/>
<path fill-rule="evenodd" clip-rule="evenodd" d="M17.2468 5.19955L17.152 5.3044C16.6903 4.98138 16.2161 4.6655 15.285 4.45714L15.1876 4.43528V3.88651L15.3605 3.93781C16.4283 4.25057 16.8281 4.75964 17.2468 5.19955Z" fill="#D1C9C0"/>
<path fill-rule="evenodd" clip-rule="evenodd" d="M25.1762 42.7167C22.6967 44.8074 20.9655 46.124 18.082 47.512L18.0836 48.1567C21.1373 46.874 23.4465 45.0822 26.0717 42.834C25.774 42.7903 25.4755 42.7512 25.1762 42.7167Z" fill="#346337"/>
<path fill-rule="evenodd" clip-rule="evenodd" d="M32.1425 41.5281C24.8628 50.0418 11.9347 55.3096 8.71014 52.0825L8.88777 51.9205C12.4157 54.1201 22.6553 50.4991 31.378 40.9539C36.9028 34.9089 40.097 27.2278 39.9445 19.3433C39.8717 15.5491 38.1106 13.0132 36.1242 11.3499L36.3023 11.1861C38.5507 12.8664 40.6802 15.5665 40.7614 19.7787C40.9154 27.7101 38.4265 34.1794 32.1425 41.5281V41.5281Z" fill="#D1C9C0"/>
<path fill-rule="evenodd" clip-rule="evenodd" d="M17.8913 39.1867L17.7792 6.69731C17.7792 6.69731 17.7776 6.53446 17.6922 6.28818C17.6047 6.0361 17.4836 5.60868 17.132 5.26469L17.2568 5.19063C18.5887 6.05529 18.596 7.11938 18.596 7.13589L18.7087 38.9712L17.8913 39.1867V39.1867ZM17.9007 43.4399L17.9206 47.5932C18.0993 47.5281 18.2843 47.4531 18.4734 47.371L18.454 43.2695C18.2687 43.3241 18.0842 43.3809 17.9007 43.4399V43.4399ZM38.7598 43.5296L38.7965 43.526C43.9728 45.7742 52.1485 50.7717 53.307 51.7581L53.264 51.9236C49.9808 49.7495 42.0137 45.3767 38.3909 43.8276L38.5036 43.7223L38.5402 43.6951C38.6146 43.6394 38.689 43.5836 38.7598 43.5296Z" fill="#D1C9C0"/>
<path fill-rule="evenodd" clip-rule="evenodd" d="M29.4346 40.5992C26.8645 40.0991 24.1581 39.8367 21.3878 39.9482C11.6837 40.3386 0.953186 47.4197 4.22229 52.3029C2.10018 46.6875 13.0545 40.5068 21.9432 40.3882C24.3523 40.3528 26.7591 40.5321 29.1244 40.9231C29.2187 40.8276 29.3261 40.717 29.4346 40.5992Z" fill="#D1C9C0"/>
<path d="M57.3993 54.9888H58.1742M43.7355 47.2733L44.7106 47.7123C45.8293 47.9327 45.3121 47.0047 45.3121 47.0047L44.1363 46.2971L43.7355 47.2733ZM42.6466 45.4668C42.6466 45.4668 42.9647 45.6689 43.277 45.979C43.4489 46.1508 43.6207 46.7852 43.5065 46.9316C43.3551 47.1252 42.7032 47.1024 42.5324 47.0047C42.0944 46.7562 41.6144 46.4916 41.6144 46.4916L42.6466 45.4668ZM41.3561 44.8806C41.3561 44.8806 41.5568 45.3927 41.3849 45.5645C41.2581 45.6899 40.6749 45.5253 40.2777 45.4128L39.0333 44.9546L40.2777 45.4128C40.732 45.7117 41.081 46.2605 40.9254 46.4916L41.3561 44.8806ZM38.1163 43.6353C38.1163 43.6353 38.3464 43.8147 38.6319 43.9771C38.8038 44.0748 39.0495 44.6776 38.9474 44.8074C38.8326 44.9546 37.9434 45.0514 37.7909 44.9912C37.3487 44.8176 36.8834 44.7342 36.8834 44.7342L38.1163 43.6353ZM32.3238 42.0238C32.3238 42.0238 32.1603 42.1875 32.0125 42.4169C31.8045 42.7385 31.6929 43.4894 31.8647 43.6349C31.98 43.7326 32.897 43.8789 33.2984 43.6349C33.903 43.2672 34.5601 42.8296 34.5601 42.8296L32.3238 42.0238ZM29.8286 42.83C29.8286 42.83 29.706 42.9371 29.5446 43.0723C29.4267 43.1718 29.1406 43.8312 29.3124 44.0021C29.5037 44.1912 30.0439 44.272 30.2011 44.1975C30.6884 43.9641 31.291 43.7085 31.291 43.7085C31.291 43.7085 30.9399 43.9708 30.7743 44.3925C30.7172 44.5388 30.6313 45.2473 30.7314 45.3205C30.8823 45.4302 31.5949 45.4931 31.8925 45.4423C32.2032 45.3892 32.3227 45.3205 32.3227 45.3205L29.8286 42.83ZM29.3124 44.0021C29.3124 44.0021 28.1078 44.8806 27.936 45.1732C27.7458 45.4967 27.7353 46.1744 27.8495 46.2721C27.9789 46.3819 28.9226 46.3765 29.1401 46.3087C29.6132 46.1624 30.7319 45.3205 30.7319 45.3205L29.3124 44.0021ZM27.5922 48.3963C27.5922 48.3963 27.5267 48.3936 27.445 48.4338C27.2192 48.5426 26.3902 48.3691 26.2157 48.25C26.0722 48.1522 26.3216 47.1511 26.56 46.9561L27.7358 46.2721L26.56 46.9561C26.0376 47.1774 25.4251 47.1957 25.27 46.9316L27.5922 48.3963ZM25.097 46.9316C25.097 46.9316 24.2592 47.6766 23.511 48.2388C23.205 48.4699 22.976 49.227 23.0326 49.3488C23.1038 49.5014 24.0507 49.5206 24.3797 49.3243C25.1185 48.8844 25.9569 48.3231 25.9569 48.3231L25.097 46.9316ZM23.205 50.9604C23.205 50.9604 22.7376 51.2539 22.2204 51.4503C21.7032 51.6457 21.0257 51.4971 20.9393 51.3508C20.8408 51.1852 21.0802 50.4803 21.5707 50.1055L23.0331 49.3493L21.5707 50.1055C21.1038 50.2492 20.5059 50.2737 20.2796 50.081L23.205 50.9604ZM19.075 50.5941C19.075 50.5941 18.4451 50.8627 18.2151 50.9845C17.8866 51.1598 17.4119 51.7166 17.5271 51.8638C17.6482 52.0182 18.6165 52.376 18.9031 52.3029C19.4428 52.165 20.0218 51.9856 20.0218 51.9856L19.075 50.5941ZM15.3767 51.8393C15.3767 51.8393 14.7453 52.2052 14.803 52.3515C14.803 52.3515 15.4328 52.4577 15.841 52.3707C16.5714 52.2145 17.5271 51.8634 17.5271 51.8634C17.5271 51.8634 16.1506 52.2783 15.6628 52.4733C15.4013 52.5786 14.9177 53.4745 14.9465 53.6699L15.3767 51.8393ZM13.8567 53.7676C13.8567 53.7676 13.1058 53.8818 12.4514 53.7922C11.9536 53.7234 11.7167 53.7217 11.5056 53.1823C11.4762 53.1091 11.8708 52.5358 12.2585 52.4711C12.6452 52.4064 13.0545 52.4247 13.0545 52.4247L13.8567 53.7676ZM8.83905 51.9125C8.83905 51.9125 8.15054 51.9857 8.32293 52.3515C8.49532 52.7182 10.1296 53.0836 11.0754 52.8646L8.83905 51.9125ZM9.18278 52.865C9.18278 52.865 9.04288 52.9445 8.84376 52.9288C8.35175 52.8887 7.83511 53.524 7.89274 53.5972C8.13063 53.9015 8.78193 54.4034 9.32425 54.4074C9.61034 54.4092 9.78483 54.5493 9.78483 54.5493L9.18278 52.865ZM7.97868 53.8167C7.97868 53.8167 7.1183 53.8899 6.172 53.3045C5.22674 52.7191 5.22674 52.6692 5.05435 52.5228C4.88197 52.3765 4.65351 51.0581 4.91078 50.8386C5.16858 50.6191 6.1437 50.9604 6.1437 50.9604C6.1437 50.9604 6.77405 51.9129 8.32345 52.352L7.97868 53.8167ZM4.53771 52.791C4.53771 52.791 4.27939 52.2788 4.88144 52.2788L4.53771 52.791ZM6.08607 50.7404C6.08607 50.7404 6.11331 49.9231 6.43084 49.7879C6.5456 49.7392 6.51678 48.9576 6.51678 48.5426C6.51678 48.274 5.88538 47.8587 5.74181 47.8105C5.50235 47.7284 4.88144 48.5181 4.79603 48.8353C4.63622 49.4242 4.91026 50.8377 4.91026 50.8377L6.08607 50.7404ZM7.17542 50.35C7.17542 50.35 6.85998 49.6415 6.43084 49.7879L7.17542 50.35ZM3.79156 49.227C3.87802 48.7871 4.27939 48.3722 4.36532 48.4699C4.55081 48.6809 4.73787 49.2752 4.73787 49.2752L3.79156 49.227ZM6.20082 45.8327C6.71694 45.2714 7.37663 45.4423 7.37663 45.54C7.37663 45.8425 7.14712 46.2721 6.97526 46.4916C6.80339 46.712 5.74181 47.7378 5.74181 47.7378L6.97526 46.4916C7.4264 46.211 8.16102 46.0932 8.40886 46.199C8.63836 46.2976 8.35175 47.0052 8.35175 47.0052L6.20082 45.8327ZM6.51678 48.3963C6.51678 48.3963 6.88933 47.5169 7.31951 47.8109C7.7497 48.1036 7.43426 48.5431 7.43426 48.5431L6.51678 48.3963ZM7.42693 45.3892C7.42693 45.3892 8.8883 44.251 9.45525 43.9931C9.67165 43.8945 10.6562 43.9253 10.7317 44.1484C10.7888 44.3193 10.1296 44.8806 10.1296 44.8806C10.1296 44.8806 11.1618 44.5147 11.2478 44.9546L7.42693 45.3892ZM9.52651 43.928C9.52651 43.928 10.0856 43.5184 9.72772 43.269L9.52651 43.928ZM11.2766 44.1484C11.2766 44.1484 13.2426 42.8153 13.4558 41.9997C13.57 41.5607 12.4236 42.0483 12.4236 42.0483L11.2766 44.1484ZM13.4558 41.9997C13.4558 41.9997 15.0099 41.3175 15.6633 41.1935C15.9217 41.1449 16.9198 41.5071 16.9539 41.7066C16.9832 41.8774 16.323 42.5128 15.9531 42.6373C15.3081 42.855 14.5729 43.2525 13.743 43.4644L13.4558 41.9997ZM18.4163 40.2418C18.4163 40.2418 19.7472 40.5617 19.6498 40.8272C19.5953 40.9744 19.142 41.3755 18.7606 41.5112C18.1297 41.7342 17.47 41.6566 17.47 41.6566L18.4163 40.2418ZM19.5345 41.5116C19.5345 41.5116 20.6663 41.5402 21.5995 41.6151C21.8285 41.6334 22.7454 41.2176 22.8031 41.0226C22.8659 40.8085 22.0286 40.4127 21.7729 40.3734C20.8953 40.2392 19.7635 40.3882 19.7635 40.3882L19.5345 41.5116ZM22.8036 41.0226C22.8036 41.0226 23.8049 41.1368 24.6674 41.218C24.9257 41.2435 25.7635 40.7683 25.8437 40.6813C26.0192 40.4886 25.1552 40.0959 25.1552 40.0959L22.8036 41.0226ZM25.2118 41.3162C25.2118 41.3162 27.0326 41.8043 27.3339 41.8775C27.839 42.0001 28.7104 41.7311 28.8251 41.608C28.9656 41.459 28.603 40.9459 28.1948 40.7786C27.4329 40.4667 26.3022 40.4859 26.3022 40.4859L25.2118 41.3162ZM45.9718 47.7123C45.9718 47.7123 46.9469 48.25 47.0056 48.4454C47.0617 48.6408 47.3211 48.9464 47.1775 49.1293C47.0334 49.3114 46.3742 48.983 46.3742 48.983L45.9718 47.7123ZM56.6007 56.3263C56.5249 56.1502 56.4031 55.9911 56.2444 55.861L55.3264 55.2721L56.2444 55.861C56.4818 55.9654 57.4459 55.8681 57.4972 55.7503C57.5585 55.6058 57.5004 55.02 57.3437 54.9018C57.2866 54.858 57.2719 54.8156 57.2719 54.8156L56.7542 54.2562L56.6007 56.3263ZM58.705 57.6046C58.9801 57.6117 59.2536 57.5792 59.3086 57.5395C59.4265 57.4533 59.1981 56.8318 58.9371 56.6681C58.3508 56.3005 57.6581 55.6852 57.6581 55.6852L58.705 57.6046ZM60.7454 58.4193C60.6131 58.3928 60.4857 58.3513 60.3665 58.2957L59.3081 57.5395L60.3665 58.2957C60.6175 58.5625 60.7931 58.9457 60.6788 59.1434L60.7454 58.4193ZM49.9734 49.5179C49.9855 49.7192 49.9661 49.9248 49.9252 50.0034C49.8576 50.1296 49.0298 50.1881 48.783 50.0565L47.6071 49.3243L48.783 50.0565C49.1188 50.3893 49.3593 50.9113 49.1267 51.0822C49.1267 51.0822 48.0939 51.1308 47.8073 51.0335C47.5207 50.9363 46.8893 50.6021 46.8893 50.6021L49.9734 49.5179ZM51.5239 52.4233C51.5239 52.4233 51.8833 52.5532 52.6106 52.9766C52.9082 53.1492 53.7188 53.1528 53.8294 53.0837C53.9667 52.9993 53.7812 52.3047 53.5124 52.1075C52.9119 51.664 52.5394 51.399 52.5394 51.399L51.5239 52.4233ZM55.481 52.5871C55.481 52.5871 55.8781 52.8641 56.1862 53.1979C56.4954 53.5325 56.4933 54.059 56.3644 54.1531C56.2193 54.2602 55.4595 54.2392 54.9769 53.963L53.8299 53.0837L54.9769 53.963C55.2227 54.2722 55.3762 54.7019 55.2316 54.9084L55.481 52.5871ZM52.3177 54.3516C52.4477 54.2307 52.0578 53.4959 51.7068 53.3286C50.9218 52.952 49.964 52.5532 49.964 52.5532L52.3177 54.3516ZM52.9685 54.208C52.9685 54.208 53.5077 54.452 53.909 54.792C54.3114 55.1311 55.0062 55.198 55.1482 55.0865C55.3091 54.9611 55.1933 54.3971 55.1933 54.3971L52.9685 54.208ZM41.2691 51.4248C41.2691 51.4248 43.3341 51.4735 43.8502 51.6202C44.3669 51.7666 45.2126 51.73 45.2838 51.4739C45.3556 51.2169 44.7682 50.8386 44.5387 50.7899C44.3087 50.7413 43.277 50.5945 43.277 50.5945L41.2691 51.4248ZM45.8571 51.6684C45.8571 51.6684 47.6931 52.0102 47.9221 52.1075C48.151 52.2047 49.1267 52.1075 49.1838 51.9611C49.2409 51.8148 48.4377 51.4244 48.4377 51.4244L45.8571 51.6684ZM44.9977 50.6918C44.9977 50.6918 45.8869 51.1736 46.2024 50.9845C46.5178 50.7953 46.3742 50.2523 46.3742 50.2523L44.9977 50.6918ZM48.2087 44.3434C48.2087 44.3434 49.9299 45.6618 50.1594 46.0522C50.389 46.4434 50.7253 46.9739 50.5032 47.1265C50.28 47.2791 49.4704 46.7361 49.2414 46.6375C49.0119 46.5398 48.7258 46.2967 48.7258 46.2967L48.2087 44.3434ZM49.9865 47.371C49.9865 47.371 51.1335 48.4454 51.2483 48.7381C51.3641 49.0307 51.4212 49.5684 51.2483 49.5684L49.9865 47.371ZM50.9045 47.6146C50.9045 47.6146 51.7068 48.3963 52.051 48.5426C52.3958 48.689 53.0838 48.8353 53.199 48.7867L50.9045 47.6146ZM54.2879 50.2028C54.2879 50.2028 55.2059 51.1794 55.2059 51.4735C55.2059 51.7661 55.3777 52.3029 55.2059 52.4006C55.034 52.4992 53.9441 52.0579 53.9441 52.0579L54.2879 50.2028ZM49.0125 51.9616C49.0125 51.9616 49.9305 52.352 50.1594 52.352C50.3884 52.352 50.9617 52.4006 51.1335 52.2542C51.2624 52.1454 51.0764 51.8638 51.0764 51.8638C51.0764 51.8638 50.6467 51.2165 50.0007 50.8506L49.0125 51.9616ZM51.9363 49.2391C51.9363 49.2391 52.8941 49.9552 53.013 50.1907C53.1409 50.4477 53.1839 50.8872 52.9261 51.0335C52.6683 51.1799 51.6365 50.6677 51.6365 50.6677L51.9363 49.2391Z" stroke="black" stroke-width="3.24244" stroke-miterlimit="2.613"/>
<path fill-rule="evenodd" clip-rule="evenodd" d="M33.2612 45.6846C26.7329 49.7611 11.7199 58.1351 5.22571 53.3148L5.3829 53.1363C12.071 56.7886 26.0208 49.0589 32.4181 45.0653C40.1478 40.2387 51.1168 30.3072 50.7736 16.8836C50.6222 10.9479 47.8886 7.70609 44.9035 5.68231L45.0601 5.50385C48.3685 7.49327 51.5596 10.8627 51.7246 17.3186C52.0694 30.8506 41.0166 40.8424 33.2612 45.6846Z" fill="#346337"/>
<path fill-rule="evenodd" clip-rule="evenodd" d="M31.1558 40.3386C30.1419 41.5152 29.3392 42.3977 28.7136 42.9862L27.3271 42.4932C28.5218 41.2836 29.5734 40.3409 29.5734 40.0486L31.1558 40.3386ZM38.622 43.3859L36.2924 45.0059L35.8025 44.7766L38.1457 43.0897L38.622 43.3859Z" fill="black"/>
<path d="M66.2402 26.377L64.7227 26.2676C63.2734 26.2676 62.3438 26.7233 61.9336 27.6348V37H57.3262V22.207H61.6465L61.7969 24.1074C62.5716 22.6582 63.6517 21.9336 65.0371 21.9336C65.5293 21.9336 65.9577 21.9883 66.3223 22.0977L66.2402 26.377ZM74.5642 37C74.4002 36.6992 74.2543 36.2572 74.1267 35.6738C73.2791 36.7402 72.0942 37.2734 70.572 37.2734C69.1775 37.2734 67.9926 36.8542 67.0173 36.0156C66.0421 35.168 65.5545 34.1061 65.5545 32.8301C65.5545 31.2259 66.1469 30.0137 67.3318 29.1934C68.5167 28.373 70.2393 27.9629 72.4998 27.9629H73.9216V27.1836C73.9216 25.8255 73.3337 25.1465 72.158 25.1465C71.0642 25.1465 70.5173 25.6842 70.5173 26.7598H65.9099C65.9099 25.3288 66.516 24.1667 67.7283 23.2734C68.9496 22.3802 70.5037 21.9336 72.3904 21.9336C74.2771 21.9336 75.7673 22.3939 76.8611 23.3145C77.9548 24.235 78.5154 25.4974 78.5427 27.1016V33.6504C78.561 35.0085 78.7706 36.0475 79.1716 36.7676V37H74.5642ZM71.6795 33.9922C72.2537 33.9922 72.7276 33.8691 73.1013 33.623C73.4841 33.377 73.7576 33.099 73.9216 32.7891V30.4238H72.5818C70.9776 30.4238 70.1755 31.1439 70.1755 32.584C70.1755 33.0033 70.3168 33.3451 70.5994 33.6094C70.8819 33.8646 71.242 33.9922 71.6795 33.9922ZM79.3062 29.4941C79.3062 27.9993 79.5523 26.6777 80.0445 25.5293C80.5366 24.3809 81.243 23.4967 82.1636 22.877C83.0842 22.248 84.1551 21.9336 85.3765 21.9336C86.9168 21.9336 88.12 22.4531 88.9859 23.4922L89.1499 22.207H93.3335V36.4395C93.3335 37.7428 93.0282 38.873 92.4175 39.8301C91.8159 40.7962 90.9409 41.5345 89.7925 42.0449C88.6441 42.5645 87.3133 42.8242 85.8003 42.8242C84.7157 42.8242 83.6629 42.6191 82.6421 42.209C81.6304 41.7988 80.8557 41.2656 80.3179 40.6094L82.2456 37.9023C83.1024 38.9141 84.2326 39.4199 85.6362 39.4199C87.6779 39.4199 88.6987 38.3717 88.6987 36.2754V35.8105C87.8146 36.7858 86.6981 37.2734 85.3491 37.2734C83.5445 37.2734 82.0861 36.5853 80.9741 35.209C79.8622 33.8236 79.3062 31.9733 79.3062 29.6582V29.4941ZM83.9273 29.7812C83.9273 30.9935 84.1551 31.9551 84.6109 32.666C85.0666 33.3678 85.7046 33.7188 86.5249 33.7188C87.5184 33.7188 88.243 33.3861 88.6987 32.7207V26.5C88.2521 25.8255 87.5366 25.4883 86.5523 25.4883C85.732 25.4883 85.0894 25.8574 84.6245 26.5957C84.1597 27.3249 83.9273 28.3867 83.9273 29.7812ZM94.1106 29.4668C94.1106 27.9902 94.3977 26.6777 94.972 25.5293C95.5462 24.3717 96.371 23.4831 97.4466 22.8633C98.5221 22.2435 99.7845 21.9336 101.234 21.9336C103.449 21.9336 105.194 22.6217 106.47 23.998C107.746 25.3652 108.384 27.2292 108.384 29.5898V29.7539C108.384 32.0599 107.741 33.8919 106.456 35.25C105.18 36.599 103.449 37.2734 101.261 37.2734C99.1555 37.2734 97.4648 36.6445 96.1888 35.3867C94.9127 34.1198 94.2246 32.4062 94.1243 30.2461L94.1106 29.4668ZM98.718 29.7539C98.718 31.1211 98.9322 32.1237 99.3606 32.7617C99.789 33.3997 100.422 33.7188 101.261 33.7188C102.902 33.7188 103.74 32.4564 103.777 29.9316V29.4668C103.777 26.8145 102.929 25.4883 101.234 25.4883C99.6933 25.4883 98.8593 26.6322 98.7317 28.9199L98.718 29.7539ZM113.386 22.207L113.536 23.9434C114.557 22.6035 115.965 21.9336 117.761 21.9336C119.301 21.9336 120.45 22.3939 121.206 23.3145C121.972 24.235 122.368 25.6204 122.396 27.4707V37H117.774V27.6621C117.774 26.9147 117.624 26.3678 117.323 26.0215C117.022 25.666 116.476 25.4883 115.683 25.4883C114.78 25.4883 114.11 25.8438 113.673 26.5547V37H109.065V22.207H113.386Z" fill="#27824D"/>
<path d="M137.754 28.8652H129.879V37H125.777V17.0938H138.738V20.416H129.879V25.5566H137.754V28.8652ZM143.207 37H139.243V22.207H143.207V37ZM139.01 18.3789C139.01 17.7865 139.206 17.2988 139.598 16.916C139.999 16.5332 140.541 16.3418 141.225 16.3418C141.899 16.3418 142.437 16.5332 142.838 16.916C143.239 17.2988 143.44 17.7865 143.44 18.3789C143.44 18.9805 143.235 19.4727 142.825 19.8555C142.423 20.2383 141.89 20.4297 141.225 20.4297C140.56 20.4297 140.022 20.2383 139.612 19.8555C139.211 19.4727 139.01 18.9805 139.01 18.3789ZM148.292 22.207L148.415 23.916C149.472 22.5944 150.889 21.9336 152.667 21.9336C154.234 21.9336 155.401 22.3939 156.167 23.3145C156.932 24.235 157.324 25.6113 157.342 27.4434V37H153.391V27.5391C153.391 26.7005 153.209 26.0944 152.844 25.7207C152.48 25.3379 151.874 25.1465 151.026 25.1465C149.914 25.1465 149.08 25.6204 148.524 26.5684V37H144.573V22.207H148.292ZM157.915 29.4941C157.915 27.1882 158.43 25.3516 159.46 23.9844C160.499 22.6172 161.916 21.9336 163.712 21.9336C165.152 21.9336 166.341 22.4714 167.28 23.5469V16H171.245V37H167.677L167.485 35.4277C166.501 36.6582 165.234 37.2734 163.685 37.2734C161.944 37.2734 160.545 36.5898 159.487 35.2227C158.439 33.8464 157.915 31.9368 157.915 29.4941ZM161.866 29.7812C161.866 31.1667 162.108 32.2285 162.591 32.9668C163.074 33.7051 163.776 34.0742 164.696 34.0742C165.918 34.0742 166.779 33.5592 167.28 32.5293V26.6914C166.788 25.6615 165.936 25.1465 164.724 25.1465C162.819 25.1465 161.866 26.6914 161.866 29.7812ZM179.296 37.2734C177.127 37.2734 175.359 36.6081 173.991 35.2773C172.633 33.9466 171.954 32.1738 171.954 29.959V29.5762C171.954 28.0905 172.241 26.7643 172.816 25.5977C173.39 24.4219 174.201 23.5195 175.249 22.8906C176.307 22.2526 177.51 21.9336 178.859 21.9336C180.882 21.9336 182.473 22.5716 183.63 23.8477C184.797 25.1237 185.38 26.9329 185.38 29.2754V30.8887H175.96C176.088 31.8548 176.471 32.6296 177.109 33.2129C177.756 33.7962 178.572 34.0879 179.556 34.0879C181.078 34.0879 182.268 33.5365 183.124 32.4336L185.066 34.6074C184.473 35.446 183.671 36.1022 182.659 36.5762C181.648 37.041 180.527 37.2734 179.296 37.2734ZM178.845 25.1328C178.061 25.1328 177.423 25.3971 176.931 25.9258C176.448 26.4544 176.138 27.2109 176.001 28.1953H181.497V27.8809C181.479 27.0059 181.242 26.3314 180.786 25.8574C180.331 25.3743 179.684 25.1328 178.845 25.1328ZM194.129 25.9121C193.591 25.8392 193.117 25.8027 192.707 25.8027C191.212 25.8027 190.232 26.3086 189.767 27.3203V37H185.816V22.207H189.548L189.658 23.9707C190.451 22.6126 191.549 21.9336 192.953 21.9336C193.39 21.9336 193.8 21.9928 194.183 22.1113L194.129 25.9121Z" fill="#2C2C2C"/>
</svg>
