<svg width="194" height="64" viewBox="0 0 194 64" fill="none" xmlns="http://www.w3.org/2000/svg">
<path fill-rule="evenodd" clip-rule="evenodd" d="M30.5411 10.3541C32.8382 11.5542 35.7866 13.9822 35.8747 18.5621C35.9936 24.7182 34.3703 29.8977 30.5411 35.285V10.3541ZM9.89271 49.3288C8.77032 49.2418 8.51933 48.8532 8.42449 48.7064C8.40877 48.6533 8.44178 48.3745 8.84161 47.8725C9.79421 46.6742 11.7612 45.4031 13.9818 44.4157L13.9944 48.1295L13.9965 48.6681C12.402 49.1843 10.9815 49.4145 9.89271 49.3288ZM43.7029 39.7252C43.7029 39.7252 44.3385 41.3546 44.8378 43.7536C43.3383 42.9452 41.8024 42.1867 40.2336 41.48C42.438 39.6132 44.798 37.3017 46.9002 34.5698C51.3918 28.7323 53.5862 22.5342 53.4232 16.1479C53.2246 8.38602 48.9223 4.39825 45.3487 2.41997C41.4907 0.2851 37.6609 0.01562 37.5 0.00490999L37.4183 0H10.5838V4.70788L12.1872 5.06659C13.5888 5.38114 13.8178 5.89645 13.8529 6.02138L13.9598 37.7367C8.27673 39.2251 3.11764 42.4334 0.960424 46.0866C0.587274 46.7112 0.343874 47.3861 0.241004 48.0814C-0.234249 49.6657 -0.00631618 51.1599 0.922174 52.4497C2.20434 54.2308 4.11005 55.3444 6.5869 55.7584C14.6981 57.1161 27.3286 50.1886 34.1356 45.9376C34.2687 45.8546 34.4086 45.7667 34.5521 45.6743C36.3096 46.3333 38.2263 47.1226 40.317 48.0622C38.4657 48.863 36.5097 49.9976 34.2985 51.4936C37.9114 51.2977 54.0263 54.5699 63.8326 63.2619C58.9004 46.5622 43.7029 39.7252 43.7029 39.7252Z" fill="black"/>
<path fill-rule="evenodd" clip-rule="evenodd" d="M51.9289 16.1876C51.5851 2.70998 37.9931 1.83105 37.9931 1.83105H12.7347V3.29624C16.0033 4.02883 16.0033 5.93304 16.0033 5.93304L16.1154 39.1555C8.06345 40.9027 -0.169835 47.4295 2.75555 51.4936C8.02834 58.8187 26.4609 48.8688 33.5199 44.4612C41.2622 39.6271 52.2726 29.6652 51.9289 16.1876ZM6.54024 49.589C4.95573 47.136 10.6069 43.2459 16.1228 41.6147L16.1453 48.1242C19.4123 46.9321 24.5342 42.9064 27.0713 40.7014C27.8447 40.867 28.1161 40.8331 28.3902 40.9455C28.1303 41.2243 27.4564 42.1287 27.1855 42.4102C20.0521 49.8348 9.06738 53.5018 6.54024 49.589ZM29.6812 39.6708C29.6812 39.6708 29.1499 40.2843 28.3907 40.1638V7.54457C28.3907 7.54457 37.8532 9.59515 38.0261 18.5313C38.1776 26.4395 35.6321 32.7419 29.6812 39.6708Z" fill="#27824D"/>
<path fill-rule="evenodd" clip-rule="evenodd" d="M36.9421 42.105L51.9347 50.5446L47.0675 46.8758C47.5066 45.6141 45.9635 43.5881 45.6837 42.0859C52.0993 46.4167 57.2562 52.2936 61.1541 59.7163C58.1732 55.8106 46.5362 50.9524 38.4501 50.6405C40.9453 49.5617 43.0821 48.8742 44.8579 48.5779L49.6124 50.4027L34.6094 43.7634L36.9421 42.105Z" fill="#27824D"/>
<path fill-rule="evenodd" clip-rule="evenodd" d="M27.5692 41.7509C22.9398 40.8567 20.4001 40.374 16.0773 41.9713L16.0527 41.646C20.4536 40.0206 23.151 40.5498 27.8631 41.4595L27.5692 41.7509ZM16.1061 38.8298C19.9144 37.9402 24.5857 38.1651 29.8883 39.4232L29.6153 39.7726C24.3551 38.5229 19.7965 38.2779 16.0794 39.1471L16.1061 38.8298Z" fill="black"/>
<path fill-rule="evenodd" clip-rule="evenodd" d="M13.9878 3.28684L13.8122 3.23419C13.633 3.18084 13.4514 3.13351 13.2678 3.09231L13.1699 3.0709V2.1875H36.8841C36.8935 2.18839 42.0531 2.52301 46.1213 5.91963L45.9421 6.08337C43.9924 4.61684 41.8629 3.8084 40.2171 3.36581C38.6378 2.94151 37.5092 2.85585 37.4285 2.85005H13.9878V3.28684Z" fill="#D1C9C0"/>
<path fill-rule="evenodd" clip-rule="evenodd" d="M26.8194 38.3368L26.7104 38.3203V5.73145L26.8608 5.74974C26.867 5.75063 30.6916 6.21687 33.4749 8.72428L33.2896 8.88223C31.988 7.83286 30.4998 7.21448 29.3355 6.858C28.7354 6.6715 28.1179 6.52852 27.4895 6.43058V38.4439L27.3334 38.4185C27.1623 38.3903 26.9909 38.363 26.8194 38.3368Z" fill="#346337"/>
<path fill-rule="evenodd" clip-rule="evenodd" d="M16.0665 4.19488L15.9717 4.29973C15.51 3.97671 15.0358 3.66083 14.1047 3.45247L14.0073 3.43061V2.88184L14.1802 2.93314C15.248 3.2459 15.6478 3.75497 16.0665 4.19488Z" fill="#D1C9C0"/>
<path fill-rule="evenodd" clip-rule="evenodd" d="M23.9961 41.7119C21.5166 43.8026 19.7854 45.1192 16.9019 46.5072L16.9035 47.1519C19.9572 45.8692 22.2664 44.0774 24.8916 41.8292C24.5939 41.7855 24.2954 41.7464 23.9961 41.7119Z" fill="#346337"/>
<path fill-rule="evenodd" clip-rule="evenodd" d="M30.9621 40.5236C23.6824 49.0373 10.7543 54.3051 7.52979 51.078L7.70741 50.916C11.2353 53.1156 21.4749 49.4946 30.1976 39.9494C35.7224 33.9044 38.9166 26.2233 38.7641 18.3388C38.6913 14.5446 36.9302 12.0087 34.9438 10.3454L35.1219 10.1816C37.3703 11.8619 39.4998 14.562 39.581 18.7742C39.735 26.7056 37.2461 33.1749 30.9621 40.5236Z" fill="#D1C9C0"/>
<path fill-rule="evenodd" clip-rule="evenodd" d="M16.711 38.1816L16.5989 5.69223C16.5989 5.69223 16.5973 5.52938 16.5119 5.2831C16.4244 5.03102 16.3033 4.6036 15.9517 4.25961L16.0765 4.18555C17.4084 5.05021 17.4157 6.1143 17.4157 6.13081L17.5284 37.9661L16.711 38.1816ZM16.7204 42.4348L16.7403 46.5881C16.919 46.523 17.104 46.448 17.2931 46.3659L17.2737 42.2644C17.0884 42.319 16.9039 42.3758 16.7204 42.4348ZM37.5795 42.5245L37.6162 42.5209C42.7925 44.7691 50.9682 49.7666 52.1267 50.753L52.0837 50.9185C48.8005 48.7444 40.8334 44.3716 37.2106 42.8225L37.3233 42.7172L37.3599 42.69C37.4343 42.6343 37.5087 42.5785 37.5795 42.5245Z" fill="#D1C9C0"/>
<path fill-rule="evenodd" clip-rule="evenodd" d="M28.2542 39.5944C25.6841 39.0943 22.9777 38.8319 20.2074 38.9434C10.5033 39.3338 -0.227202 46.4149 3.0419 51.2981C0.919792 45.6827 11.8741 39.502 20.7628 39.3834C23.1719 39.348 25.5787 39.5273 27.944 39.9183C28.0383 39.8228 28.1457 39.7122 28.2542 39.5944Z" fill="#D1C9C0"/>
<path d="M56.2191 53.9837H56.994H56.2191ZM42.5553 46.2682L43.5304 46.7072C44.6491 46.9276 44.1319 45.9996 44.1319 45.9996L42.9561 45.292L42.5553 46.2682ZM41.4664 44.4617C41.4664 44.4617 41.7845 44.6638 42.0968 44.9739C42.2687 45.1457 42.4405 45.7801 42.3263 45.9265C42.1749 46.1201 41.523 46.0973 41.3522 45.9996C40.9142 45.7511 40.4342 45.4865 40.4342 45.4865L41.4664 44.4617ZM40.1759 43.8755C40.1759 43.8755 40.3766 44.3876 40.2047 44.5594C40.0779 44.6848 39.4947 44.5202 39.0975 44.4077L37.8531 43.9495L39.0975 44.4077C39.5518 44.7066 39.9008 45.2554 39.7452 45.4865L40.1759 43.8755ZM36.9361 42.6302C36.9361 42.6302 37.1662 42.8096 37.4517 42.972C37.6236 43.0697 37.8693 43.6725 37.7672 43.8023C37.6524 43.9495 36.7632 44.0463 36.6107 43.9861C36.1685 43.8125 35.7032 43.7291 35.7032 43.7291L36.9361 42.6302ZM31.1436 41.0187C31.1436 41.0187 30.9801 41.1824 30.8323 41.4118C30.6243 41.7334 30.5127 42.4843 30.6845 42.6298C30.7998 42.7275 31.7168 42.8738 32.1182 42.6298C32.7228 42.2621 33.3799 41.8245 33.3799 41.8245L31.1436 41.0187ZM28.6484 41.8249C28.6484 41.8249 28.5258 41.932 28.3644 42.0672C28.2465 42.1667 27.9604 42.8261 28.1322 42.997C28.3235 43.1861 28.8637 43.2669 29.0209 43.1924C29.5082 42.959 30.1108 42.7034 30.1108 42.7034C30.1108 42.7034 29.7597 42.9657 29.5941 43.3874C29.537 43.5337 29.4511 44.2422 29.5512 44.3154C29.7021 44.4251 30.4147 44.488 30.7123 44.4372C31.023 44.3841 31.1425 44.3154 31.1425 44.3154L28.6484 41.8249ZM28.1322 42.997C28.1322 42.997 26.9276 43.8755 26.7558 44.1681C26.5656 44.4916 26.5551 45.1693 26.6693 45.267C26.7987 45.3768 27.7424 45.3714 27.9599 45.3036C28.433 45.1573 29.5517 44.3154 29.5517 44.3154L28.1322 42.997ZM26.412 47.3912C26.412 47.3912 26.3465 47.3885 26.2648 47.4287C26.039 47.5375 25.21 47.364 25.0355 47.2449C24.892 47.1471 25.1414 46.146 25.3798 45.951L26.5556 45.267L25.3798 45.951C24.8574 46.1723 24.2449 46.1906 24.0898 45.9265L26.412 47.3912ZM23.9168 45.9265C23.9168 45.9265 23.079 46.6715 22.3308 47.2337C22.0248 47.4648 21.7958 48.2219 21.8524 48.3437C21.9236 48.4963 22.8705 48.5155 23.1995 48.3192C23.9383 47.8793 24.7767 47.318 24.7767 47.318L23.9168 45.9265ZM22.0248 49.9553C22.0248 49.9553 21.5574 50.2488 21.0402 50.4452C20.523 50.6406 19.8455 50.492 19.7591 50.3457C19.6606 50.1801 19.9 49.4752 20.3905 49.1004L21.8529 48.3442L20.3905 49.1004C19.9236 49.2441 19.3257 49.2686 19.0994 49.0759L22.0248 49.9553ZM17.8948 49.589C17.8948 49.589 17.2649 49.8576 17.0349 49.9794C16.7064 50.1547 16.2317 50.7115 16.3469 50.8587C16.468 51.0131 17.4363 51.3709 17.7229 51.2978C18.2626 51.1599 18.8416 50.9805 18.8416 50.9805L17.8948 49.589ZM14.1965 50.8342C14.1965 50.8342 13.5651 51.2001 13.6228 51.3464C13.6228 51.3464 14.2526 51.4526 14.6608 51.3656C15.3912 51.2094 16.3469 50.8583 16.3469 50.8583C16.3469 50.8583 14.9704 51.2732 14.4826 51.4682C14.2211 51.5735 13.7375 52.4694 13.7663 52.6648L14.1965 50.8342ZM12.6765 52.7625C12.6765 52.7625 11.9256 52.8767 11.2712 52.7871C10.7734 52.7183 10.5365 52.7166 10.3254 52.1772C10.296 52.104 10.6906 51.5307 11.0783 51.466C11.465 51.4013 11.8743 51.4196 11.8743 51.4196L12.6765 52.7625ZM7.65882 50.9074C7.65882 50.9074 6.97031 50.9806 7.1427 51.3464C7.31509 51.7131 8.94937 52.0785 9.89517 51.8595L7.65882 50.9074ZM8.00255 51.8599C8.00255 51.8599 7.86265 51.9394 7.66353 51.9237C7.17152 51.8836 6.65488 52.5189 6.71251 52.5921C6.9504 52.8964 7.6017 53.3983 8.14402 53.4023C8.43011 53.4041 8.6046 53.5442 8.6046 53.5442L8.00255 51.8599ZM6.79845 52.8116C6.79845 52.8116 5.93807 52.8848 4.99177 52.2994C4.04651 51.714 4.04651 51.6641 3.87412 51.5177C3.70174 51.3714 3.47328 50.053 3.73055 49.8335C3.98835 49.614 4.96347 49.9553 4.96347 49.9553C4.96347 49.9553 5.59382 50.9078 7.14322 51.3469L6.79845 52.8116ZM3.35748 51.7859C3.35748 51.7859 3.09916 51.2737 3.70121 51.2737L3.35748 51.7859ZM4.90584 49.7353C4.90584 49.7353 4.93308 48.918 5.25061 48.7828C5.36537 48.7341 5.33655 47.9525 5.33655 47.5375C5.33655 47.2689 4.70515 46.8536 4.56158 46.8054C4.32212 46.7233 3.70121 47.513 3.6158 47.8302C3.45599 48.4191 3.73003 49.8326 3.73003 49.8326L4.90584 49.7353ZM5.99519 49.3449C5.99519 49.3449 5.67975 48.6364 5.25061 48.7828L5.99519 49.3449ZM2.61133 48.2219C2.69779 47.782 3.09916 47.3671 3.18509 47.4648C3.37058 47.6758 3.55764 48.2701 3.55764 48.2701L2.61133 48.2219ZM5.02059 44.8276C5.53671 44.2663 6.1964 44.4372 6.1964 44.5349C6.1964 44.8374 5.96689 45.267 5.79503 45.4865C5.62316 45.7069 4.56158 46.7327 4.56158 46.7327L5.79503 45.4865C6.24617 45.2059 6.98079 45.0881 7.22863 45.1939C7.45813 45.2925 7.17152 46.0001 7.17152 46.0001L5.02059 44.8276ZM5.33655 47.3912C5.33655 47.3912 5.7091 46.5118 6.13928 46.8058C6.56947 47.0985 6.25403 47.538 6.25403 47.538L5.33655 47.3912ZM6.2467 44.3841C6.2467 44.3841 7.70807 43.2459 8.27502 42.988C8.49142 42.8894 9.47597 42.9202 9.55147 43.1433C9.60857 43.3142 8.94937 43.8755 8.94937 43.8755C8.94937 43.8755 9.98157 43.5096 10.0676 43.9495L6.2467 44.3841ZM8.34628 42.9229C8.34628 42.9229 8.90537 42.5133 8.54749 42.2639L8.34628 42.9229ZM10.0964 43.1433C10.0964 43.1433 12.0624 41.8102 12.2756 40.9946C12.3898 40.5556 11.2434 41.0432 11.2434 41.0432L10.0964 43.1433ZM12.2756 40.9946C12.2756 40.9946 13.8297 40.3124 14.4831 40.1884C14.7415 40.1398 15.7396 40.502 15.7737 40.7015C15.803 40.8723 15.1428 41.5077 14.7729 41.6322C14.1279 41.8499 13.3927 42.2474 12.5628 42.4593L12.2756 40.9946ZM17.2361 39.2367C17.2361 39.2367 18.567 39.5566 18.4696 39.8221C18.4151 39.9693 17.9618 40.3704 17.5804 40.5061C16.9495 40.7291 16.2898 40.6515 16.2898 40.6515L17.2361 39.2367ZM18.3543 40.5065C18.3543 40.5065 19.4861 40.5351 20.4193 40.61C20.6483 40.6283 21.5652 40.2125 21.6229 40.0175C21.6857 39.8034 20.8484 39.4076 20.5927 39.3683C19.7151 39.2341 18.5833 39.3831 18.5833 39.3831L18.3543 40.5065ZM21.6234 40.0175C21.6234 40.0175 22.6247 40.1317 23.4872 40.2129C23.7455 40.2384 24.5833 39.7632 24.6635 39.6762C24.839 39.4835 23.975 39.0908 23.975 39.0908L21.6234 40.0175ZM24.0316 40.3111C24.0316 40.3111 25.8524 40.7992 26.1537 40.8724C26.6588 40.995 27.5302 40.726 27.6449 40.6029C27.7854 40.4539 27.4228 39.9408 27.0146 39.7735C26.2527 39.4616 25.122 39.4808 25.122 39.4808L24.0316 40.3111ZM44.7916 46.7072C44.7916 46.7072 45.7667 47.2449 45.8254 47.4403C45.8815 47.6357 46.1409 47.9413 45.9973 48.1242C45.8532 48.3063 45.194 47.9779 45.194 47.9779L44.7916 46.7072ZM55.4205 55.3212C55.3447 55.1451 55.2229 54.986 55.0642 54.8559L54.1462 54.267L55.0642 54.8559C55.3016 54.9603 56.2657 54.863 56.317 54.7452C56.3783 54.6007 56.3202 54.0149 56.1635 53.8967C56.1064 53.8529 56.0917 53.8105 56.0917 53.8105L55.574 53.2511L55.4205 55.3212ZM57.5248 56.5995C57.7999 56.6066 58.0734 56.5741 58.1284 56.5344C58.2463 56.4482 58.0179 55.8267 57.7569 55.663C57.1706 55.2954 56.4779 54.6801 56.4779 54.6801L57.5248 56.5995ZM59.5652 57.4142C59.4329 57.3877 59.3055 57.3462 59.1863 57.2906L58.1279 56.5344L59.1863 57.2906C59.4373 57.5574 59.6129 57.9406 59.4986 58.1383L59.5652 57.4142ZM48.7932 48.5128C48.8053 48.7141 48.7859 48.9197 48.745 48.9983C48.6774 49.1245 47.8496 49.183 47.6028 49.0514L46.4269 48.3192L47.6028 49.0514C47.9386 49.3842 48.1791 49.9062 47.9465 50.0771C47.9465 50.0771 46.9137 50.1257 46.6271 50.0284C46.3405 49.9312 45.7091 49.597 45.7091 49.597L48.7932 48.5128ZM50.3437 51.4182C50.3437 51.4182 50.7031 51.5481 51.4304 51.9715C51.728 52.1441 52.5386 52.1477 52.6492 52.0786C52.7865 51.9942 52.601 51.2996 52.3322 51.1024C51.7317 50.6589 51.3592 50.3939 51.3592 50.3939L50.3437 51.4182ZM54.3008 51.582C54.3008 51.582 54.6979 51.859 55.006 52.1928C55.3152 52.5274 55.3131 53.0539 55.1842 53.148C55.0391 53.2551 54.2793 53.2341 53.7967 52.9579L52.6497 52.0786L53.7967 52.9579C54.0425 53.2671 54.196 53.6968 54.0514 53.9033L54.3008 51.582ZM51.1375 53.3465C51.2675 53.2256 50.8776 52.4908 50.5266 52.3235C49.7416 51.9469 48.7838 51.5481 48.7838 51.5481L51.1375 53.3465ZM51.7883 53.2029C51.7883 53.2029 52.3275 53.4469 52.7288 53.7869C53.1312 54.126 53.826 54.1929 53.968 54.0814C54.1289 53.956 54.0131 53.392 54.0131 53.392L51.7883 53.2029ZM40.0889 50.4197C40.0889 50.4197 42.1539 50.4684 42.67 50.6151C43.1867 50.7615 44.0324 50.7249 44.1036 50.4688C44.1754 50.2118 43.588 49.8335 43.3585 49.7848C43.1285 49.7362 42.0968 49.5894 42.0968 49.5894L40.0889 50.4197ZM44.6769 50.6633C44.6769 50.6633 46.5129 51.0051 46.7419 51.1024C46.9708 51.1996 47.9465 51.1024 48.0036 50.956C48.0607 50.8097 47.2575 50.4193 47.2575 50.4193L44.6769 50.6633ZM43.8175 49.6867C43.8175 49.6867 44.7067 50.1685 45.0222 49.9794C45.3376 49.7902 45.194 49.2472 45.194 49.2472L43.8175 49.6867ZM47.0285 43.3383C47.0285 43.3383 48.7497 44.6567 48.9792 45.0471C49.2088 45.4383 49.5451 45.9688 49.323 46.1214C49.0998 46.274 48.2902 45.731 48.0612 45.6324C47.8317 45.5347 47.5456 45.2916 47.5456 45.2916L47.0285 43.3383ZM48.8063 46.3659C48.8063 46.3659 49.9533 47.4403 50.0681 47.733C50.1839 48.0256 50.241 48.5633 50.0681 48.5633L48.8063 46.3659ZM49.7243 46.6095C49.7243 46.6095 50.5266 47.3912 50.8708 47.5375C51.2156 47.6839 51.9036 47.8302 52.0188 47.7816L49.7243 46.6095ZM53.1077 49.1977C53.1077 49.1977 54.0257 50.1743 54.0257 50.4684C54.0257 50.761 54.1975 51.2978 54.0257 51.3955C53.8538 51.4941 52.7639 51.0528 52.7639 51.0528L53.1077 49.1977ZM47.8323 50.9565C47.8323 50.9565 48.7503 51.3469 48.9792 51.3469C49.2082 51.3469 49.7815 51.3955 49.9533 51.2491C50.0822 51.1403 49.8962 50.8587 49.8962 50.8587C49.8962 50.8587 49.4665 50.2114 48.8205 49.8455L47.8323 50.9565ZM50.7561 48.234C50.7561 48.234 51.7139 48.9501 51.8328 49.1856C51.9607 49.4426 52.0037 49.8821 51.7459 50.0284C51.4881 50.1748 50.4563 49.6626 50.4563 49.6626L50.7561 48.234Z" stroke="black" stroke-width="3.24244" stroke-miterlimit="2.613"/>
<path fill-rule="evenodd" clip-rule="evenodd" d="M32.0809 44.6798C25.5526 48.7563 10.5396 57.1303 4.04541 52.31L4.2026 52.1315C10.8907 55.7838 24.8405 48.0541 31.2378 44.0605C38.9675 39.2339 49.9365 29.3024 49.5933 15.8788C49.4419 9.94307 46.7083 6.70126 43.7232 4.67748L43.8798 4.49902C47.1882 6.48844 50.3793 9.85787 50.5443 16.3138C50.8891 29.8458 39.8363 39.8376 32.0809 44.6798Z" fill="#346337"/>
<path fill-rule="evenodd" clip-rule="evenodd" d="M29.9757 39.3339C28.9618 40.5105 28.1591 41.393 27.5335 41.9815L26.147 41.4885C27.3417 40.2789 28.3933 39.3362 28.3933 39.0439L29.9757 39.3339ZM37.4419 42.3812L35.1123 44.0012L34.6224 43.7719L36.9656 42.085L37.4419 42.3812Z" fill="black"/>
<path d="M65.06 25.3721L63.5425 25.2627C62.0932 25.2627 61.1636 25.7184 60.7534 26.6299V35.9951H56.146V21.2021H60.4663L60.6167 23.1025C61.3914 21.6533 62.4715 20.9287 63.8569 20.9287C64.3491 20.9287 64.7775 20.9834 65.1421 21.0928L65.06 25.3721ZM73.384 35.9951C73.22 35.6943 73.0741 35.2523 72.9465 34.6689C72.0989 35.7353 70.914 36.2685 69.3918 36.2685C67.9973 36.2685 66.8124 35.8493 65.8371 35.0107C64.8619 34.1631 64.3743 33.1012 64.3743 31.8252C64.3743 30.221 64.9667 29.0088 66.1516 28.1885C67.3365 27.3681 69.0591 26.958 71.3196 26.958H72.7414V26.1787C72.7414 24.8206 72.1535 24.1416 70.9778 24.1416C69.884 24.1416 69.3371 24.6793 69.3371 25.7549H64.7297C64.7297 24.3239 65.3358 23.1618 66.5481 22.2685C67.7694 21.3753 69.3235 20.9287 71.2102 20.9287C73.0969 20.9287 74.5871 21.389 75.6809 22.3096C76.7746 23.2301 77.3352 24.4925 77.3625 26.0967V32.6455C77.3808 34.0036 77.5904 35.0426 77.9914 35.7627V35.9951H73.384ZM70.4993 32.9873C71.0735 32.9873 71.5474 32.8642 71.9211 32.6181C72.3039 32.3721 72.5774 32.0941 72.7414 31.7842V29.4189H71.4016C69.7974 29.4189 68.9953 30.139 68.9953 31.5791C68.9953 31.9984 69.1366 32.3402 69.4192 32.6045C69.7017 32.8597 70.0618 32.9873 70.4993 32.9873ZM78.126 28.4892C78.126 26.9944 78.3721 25.6728 78.8643 24.5244C79.3564 23.376 80.0628 22.4918 80.9834 21.8721C81.904 21.2431 82.9749 20.9287 84.1963 20.9287C85.7366 20.9287 86.9398 21.4482 87.8057 22.4873L87.9697 21.2021H92.1533V35.4346C92.1533 36.7379 91.848 37.8681 91.2373 38.8252C90.6357 39.7913 89.7607 40.5296 88.6123 41.04C87.4639 41.5596 86.1331 41.8193 84.6201 41.8193C83.5355 41.8193 82.4827 41.6142 81.4619 41.2041C80.4502 40.7939 79.6755 40.2607 79.1377 39.6045L81.0654 36.8974C81.9222 37.9092 83.0524 38.415 84.456 38.415C86.4977 38.415 87.5185 37.3668 87.5185 35.2705V34.8056C86.6344 35.7809 85.5179 36.2685 84.1689 36.2685C82.3643 36.2685 80.9059 35.5804 79.7939 34.2041C78.682 32.8187 78.126 30.9684 78.126 28.6533V28.4892ZM82.7471 28.7763C82.7471 29.9886 82.9749 30.9502 83.4307 31.6611C83.8864 32.3629 84.5244 32.7139 85.3447 32.7139C86.3382 32.7139 87.0628 32.3812 87.5185 31.7158V25.4951C87.0719 24.8206 86.3564 24.4834 85.3721 24.4834C84.5518 24.4834 83.9092 24.8525 83.4443 25.5908C82.9795 26.32 82.7471 27.3818 82.7471 28.7763ZM92.9304 28.4619C92.9304 26.9853 93.2175 25.6728 93.7918 24.5244C94.366 23.3668 95.1908 22.4782 96.2664 21.8584C97.3419 21.2386 98.6043 20.9287 100.054 20.9287C102.269 20.9287 104.014 21.6168 105.29 22.9931C106.566 24.3603 107.204 26.2243 107.204 28.5849V28.749C107.204 31.055 106.561 32.887 105.276 34.2451C104 35.5941 102.269 36.2685 100.081 36.2685C97.9753 36.2685 96.2846 35.6396 95.0086 34.3818C93.7325 33.1149 93.0444 31.4013 92.9441 29.2412L92.9304 28.4619ZM97.5378 28.749C97.5378 30.1162 97.752 31.1188 98.1804 31.7568C98.6088 32.3948 99.2418 32.7139 100.081 32.7139C101.722 32.7139 102.56 31.4515 102.597 28.9267V28.4619C102.597 25.8096 101.749 24.4834 100.054 24.4834C98.5131 24.4834 97.6791 25.6273 97.5515 27.915L97.5378 28.749ZM112.206 21.2021L112.356 22.9385C113.377 21.5986 114.785 20.9287 116.581 20.9287C118.121 20.9287 119.27 21.389 120.026 22.3096C120.792 23.2301 121.188 24.6155 121.216 26.4658V35.9951H116.594V26.6572C116.594 25.9098 116.444 25.3629 116.143 25.0166C115.842 24.6611 115.296 24.4834 114.503 24.4834C113.6 24.4834 112.93 24.8389 112.493 25.5498V35.9951H107.885V21.2021H112.206Z" fill="#27824D"/>
<path d="M136.574 27.8603H128.699V35.9951H124.597V16.0889H137.558V19.4111H128.699V24.5517H136.574V27.8603ZM142.027 35.9951H138.063V21.2021H142.027V35.9951ZM137.83 17.374C137.83 16.7816 138.026 16.2939 138.418 15.9111C138.819 15.5283 139.361 15.3369 140.045 15.3369C140.719 15.3369 141.257 15.5283 141.658 15.9111C142.059 16.2939 142.26 16.7816 142.26 17.374C142.26 17.9756 142.055 18.4678 141.645 18.8506C141.243 19.2334 140.71 19.4248 140.045 19.4248C139.38 19.4248 138.842 19.2334 138.432 18.8506C138.031 18.4678 137.83 17.9756 137.83 17.374ZM147.112 21.2021L147.235 22.9111C148.292 21.5895 149.709 20.9287 151.487 20.9287C153.054 20.9287 154.221 21.389 154.987 22.3096C155.752 23.2301 156.144 24.6064 156.162 26.4385V35.9951H152.211V26.5342C152.211 25.6956 152.029 25.0895 151.664 24.7158C151.3 24.333 150.694 24.1416 149.846 24.1416C148.734 24.1416 147.9 24.6155 147.344 25.5635V35.9951H143.393V21.2021H147.112ZM156.735 28.4892C156.735 26.1833 157.25 24.3467 158.28 22.9795C159.319 21.6123 160.736 20.9287 162.532 20.9287C163.972 20.9287 165.161 21.4665 166.1 22.542V14.9951H170.065V35.9951H166.497L166.305 34.4228C165.321 35.6533 164.054 36.2685 162.505 36.2685C160.764 36.2685 159.365 35.5849 158.307 34.2178C157.259 32.8415 156.735 30.9319 156.735 28.4892ZM160.686 28.7763C160.686 30.1618 160.928 31.2236 161.411 31.9619C161.894 32.7002 162.596 33.0693 163.516 33.0693C164.738 33.0693 165.599 32.5543 166.1 31.5244V25.6865C165.608 24.6566 164.756 24.1416 163.544 24.1416C161.639 24.1416 160.686 25.6865 160.686 28.7763ZM178.116 36.2685C175.947 36.2685 174.179 35.6032 172.811 34.2724C171.453 32.9417 170.774 31.1689 170.774 28.9541V28.5713C170.774 27.0856 171.061 25.7594 171.636 24.5928C172.21 23.417 173.021 22.5146 174.069 21.8857C175.127 21.2477 176.33 20.9287 177.679 20.9287C179.702 20.9287 181.293 21.5667 182.45 22.8428C183.617 24.1188 184.2 25.928 184.2 28.2705V29.8838H174.78C174.908 30.8499 175.291 31.6247 175.929 32.208C176.576 32.7913 177.392 33.083 178.376 33.083C179.898 33.083 181.088 32.5316 181.944 31.4287L183.886 33.6025C183.293 34.4411 182.491 35.0973 181.479 35.5713C180.468 36.0361 179.347 36.2685 178.116 36.2685ZM177.665 24.1279C176.881 24.1279 176.243 24.3922 175.751 24.9209C175.268 25.4495 174.958 26.206 174.821 27.1904H180.317V26.876C180.299 26.001 180.062 25.3265 179.606 24.8525C179.151 24.3694 178.504 24.1279 177.665 24.1279ZM192.949 24.9072C192.411 24.8343 191.937 24.7978 191.527 24.7978C190.032 24.7978 189.052 25.3037 188.587 26.3154V35.9951H184.636V21.2021H188.368L188.478 22.9658C189.271 21.6077 190.369 20.9287 191.773 20.9287C192.21 20.9287 192.62 20.9879 193.003 21.1064L192.949 24.9072Z" fill="#2C2C2C"/>
</svg>
